<svg width="33" height="32" viewBox="0 0 33 32" fill="none" xmlns="http://www.w3.org/2000/svg">
<g id="Devices / tv-line" clip-path="url(#clip0_111_2254)">
<g id="Group">
<path id="Vector" d="M21.2186 6.66667H28.6773C29.4079 6.66667 29.9999 7.26 29.9999 8V26.6667C29.9999 27.4027 29.3933 28 28.6773 28H4.65594C4.48145 27.9997 4.30874 27.9648 4.14773 27.8976C3.98671 27.8303 3.84057 27.7319 3.71768 27.6081C3.59479 27.4842 3.49757 27.3372 3.4316 27.1757C3.36564 27.0141 3.33222 26.8412 3.33328 26.6667V8C3.33328 7.264 3.93994 6.66667 4.65594 6.66667H12.1146L8.73328 3.28533L10.6186 1.4L15.8853 6.66667H17.4479L22.7146 1.4L24.5999 3.28533L21.2186 6.66667ZM5.99994 9.33333V25.3333H27.3333V9.33333H5.99994Z" fill="white"/>
</g>
</g>
<defs>
<clipPath id="clip0_111_2254">
<rect width="32" height="32" fill="white" transform="translate(0.666626)"/>
</clipPath>
</defs>
</svg>
