<svg width="32" height="32" viewBox="0 0 32 32" fill="none" xmlns="http://www.w3.org/2000/svg">
<g id="ring_volume" clip-path="url(#clip0_111_2261)">
<path id="Vector" d="M31.6133 22.2267C27.5467 18.3733 22.0533 16 16 16C9.94667 16 4.45333 18.3733 0.386667 22.2267C0.146667 22.4667 0 22.8 0 23.1733C0 23.5467 0.146667 23.88 0.386667 24.12L3.69333 27.4267C3.93333 27.6667 4.26667 27.8133 4.64 27.8133C5 27.8133 5.33333 27.6667 5.57333 27.44C6.62667 26.4533 7.82667 25.6267 9.12 24.9733C9.56 24.76 9.86667 24.3067 9.86667 23.7733V19.64C11.8 19 13.8667 18.6667 16 18.6667C18.1333 18.6667 20.2 19 22.1333 19.6267V23.76C22.1333 24.28 22.44 24.7467 22.88 24.96C24.1867 25.6133 25.3733 26.4533 26.4267 27.4267C26.6667 27.6667 27 27.8 27.36 27.8C27.7333 27.8 28.0667 27.6533 28.3067 27.4133L31.6133 24.1067C31.8533 23.8667 32 23.5333 32 23.16C32 22.8 31.8533 22.4667 31.6133 22.2267ZM7.2 22.9733C6.32 23.4667 5.48 24.04 4.70667 24.6667L3.28 23.24C4.49333 22.24 5.81333 21.3867 7.21333 20.7067V22.9733H7.2ZM27.2933 24.6533C26.5067 24.0133 25.68 23.4533 24.8 22.96V20.6933C26.1867 21.3733 27.5067 22.2267 28.72 23.2267L27.2933 24.6533ZM28.2133 8.34667L26.3333 6.46667L21.5867 11.2L23.4667 13.08C23.4667 13.08 28.0667 8.38667 28.2133 8.34667ZM14.6667 2.66667H17.3333V9.33333H14.6667V2.66667ZM8.53333 13.08L10.4133 11.2L5.68 6.45333L3.78667 8.34667C3.93333 8.38667 8.53333 13.08 8.53333 13.08Z" fill="white"/>
</g>
<defs>
<clipPath id="clip0_111_2261">
<rect width="32" height="32" fill="white"/>
</clipPath>
</defs>
</svg>
