<svg width="32" height="32" viewBox="0 0 32 32" fill="none" xmlns="http://www.w3.org/2000/svg">
<g id="Devices / base-station-line" clip-path="url(#clip0_111_2251)">
<g id="Group">
<path id="Vector" d="M16 17.3333L24 29.3333H7.99998L16 17.3333ZM16 22.1333L12.9867 26.6667H19.0133L16 22.1333ZM14.5866 14.08C14.3902 13.8969 14.2325 13.6761 14.1232 13.4308C14.0139 13.1854 13.9551 12.9206 13.9504 12.6521C13.9457 12.3835 13.9951 12.1168 14.0957 11.8677C14.1962 11.6187 14.346 11.3925 14.5359 11.2026C14.7258 11.0126 14.952 10.8629 15.2011 10.7623C15.4501 10.6618 15.7168 10.6124 15.9854 10.6171C16.2539 10.6218 16.5188 10.6806 16.7641 10.7899C17.0094 10.8992 17.2302 11.0568 17.4133 11.2533C17.7666 11.6325 17.9589 12.1339 17.9498 12.6521C17.9406 13.1702 17.7307 13.6646 17.3643 14.031C16.9979 14.3974 16.5035 14.6073 15.9854 14.6165C15.4672 14.6256 14.9658 14.4333 14.5866 14.08ZM7.04132 3.71067L8.92798 5.59733C7.05287 7.47266 5.99945 10.016 5.99945 12.668C5.99945 15.32 7.05287 17.8633 8.92798 19.7387L7.04132 21.6253C5.86491 20.4491 4.93173 19.0527 4.29506 17.5157C3.65838 15.9788 3.33069 14.3316 3.33069 12.668C3.33069 11.0044 3.65838 9.35716 4.29506 7.82025C4.93173 6.28334 5.86491 4.8869 7.04132 3.71067ZM24.956 3.71067C26.1324 4.8869 27.0656 6.28334 27.7022 7.82025C28.3389 9.35716 28.6666 11.0044 28.6666 12.668C28.6666 14.3316 28.3389 15.9788 27.7022 17.5157C27.0656 19.0527 26.1324 20.4491 24.956 21.6253L23.0693 19.7387C24.9444 17.8633 25.9978 15.32 25.9978 12.668C25.9978 10.016 24.9444 7.47266 23.0693 5.59733L24.956 3.71067ZM10.8133 7.48133L12.6987 9.36667C12.2653 9.80001 11.9215 10.3145 11.6869 10.8807C11.4524 11.4469 11.3316 12.0538 11.3316 12.6667C11.3316 13.2795 11.4524 13.8864 11.6869 14.4526C11.9215 15.0189 12.2653 15.5333 12.6987 15.9667L10.8133 17.852C9.43812 16.4767 8.66555 14.6115 8.66555 12.6667C8.66555 10.7218 9.43812 8.85659 10.8133 7.48133ZM21.184 7.48133C22.5592 8.85659 23.3318 10.7218 23.3318 12.6667C23.3318 14.6115 22.5592 16.4767 21.184 17.852L19.2987 15.9667C19.732 15.5333 20.0758 15.0189 20.3104 14.4526C20.5449 13.8864 20.6657 13.2795 20.6657 12.6667C20.6657 12.0538 20.5449 11.4469 20.3104 10.8807C20.0758 10.3145 19.732 9.80001 19.2987 9.36667L21.184 7.48133Z" fill="white"/>
</g>
</g>
<defs>
<clipPath id="clip0_111_2251">
<rect width="32" height="32" fill="white"/>
</clipPath>
</defs>
</svg>
