<svg width="33" height="32" viewBox="0 0 33 32" fill="none" xmlns="http://www.w3.org/2000/svg">
<g id="mail_outline" clip-path="url(#clip0_111_2258)">
<path id="Vector" d="M27 5.33333H5.66667C4.2 5.33333 3.01333 6.53333 3.01333 8L3 24C3 25.4667 4.2 26.6667 5.66667 26.6667H27C28.4667 26.6667 29.6667 25.4667 29.6667 24V8C29.6667 6.53333 28.4667 5.33333 27 5.33333ZM25.6667 24H7C6.26667 24 5.66667 23.4 5.66667 22.6667V10.6667L14.92 16.4533C15.7867 17 16.88 17 17.7467 16.4533L27 10.6667V22.6667C27 23.4 26.4 24 25.6667 24ZM16.3333 14.6667L5.66667 8H27L16.3333 14.6667Z" fill="white"/>
</g>
<defs>
<clipPath id="clip0_111_2258">
<rect width="32" height="32" fill="white" transform="translate(0.333374)"/>
</clipPath>
</defs>
</svg>
