<svg width="33" height="32" viewBox="0 0 33 32" fill="none" xmlns="http://www.w3.org/2000/svg">
<g id="work_outline" clip-path="url(#clip0_111_2264)">
<path id="Vector" fill-rule="evenodd" clip-rule="evenodd" d="M19.3334 8V5.33333H14V8H19.3334ZM6.00004 10.6667V25.3333H27.3334V10.6667H6.00004ZM27.3334 8C28.8134 8 30 9.18667 30 10.6667V25.3333C30 26.8133 28.8134 28 27.3334 28H6.00004C4.52004 28 3.33337 26.8133 3.33337 25.3333L3.34671 10.6667C3.34671 9.18667 4.52004 8 6.00004 8H11.3334V5.33333C11.3334 3.85333 12.52 2.66667 14 2.66667H19.3334C20.8134 2.66667 22 3.85333 22 5.33333V8H27.3334Z" fill="white"/>
</g>
<defs>
<clipPath id="clip0_111_2264">
<rect width="32" height="32" fill="white" transform="translate(0.666748)"/>
</clipPath>
</defs>
</svg>
