<svg width="33" height="32" viewBox="0 0 33 32" fill="none" xmlns="http://www.w3.org/2000/svg">
<g id="phone_iphone" clip-path="url(#clip0_111_2248)">
<path id="Vector" d="M21 1.33333H10.3333C8.49333 1.33333 7 2.82667 7 4.66667V27.3333C7 29.1733 8.49333 30.6667 10.3333 30.6667H21C22.84 30.6667 24.3333 29.1733 24.3333 27.3333V4.66667C24.3333 2.82667 22.84 1.33333 21 1.33333ZM15.6667 29.3333C14.56 29.3333 13.6667 28.44 13.6667 27.3333C13.6667 26.2267 14.56 25.3333 15.6667 25.3333C16.7733 25.3333 17.6667 26.2267 17.6667 27.3333C17.6667 28.44 16.7733 29.3333 15.6667 29.3333ZM21.6667 24H9.66667V5.33333H21.6667V24Z" fill="white"/>
</g>
<defs>
<clipPath id="clip0_111_2248">
<rect width="32" height="32" fill="white" transform="translate(0.333374)"/>
</clipPath>
</defs>
</svg>
