<svg width="243" height="202" viewBox="0 0 243 202" fill="none" xmlns="http://www.w3.org/2000/svg">
<g id="812 1">
<g id="g8">
<g id="g10">
<path id="path14" d="M176.81 100.295L176.837 100.271C176.572 100.031 176.296 99.8006 176.012 99.5814L132.755 60.9506C126.355 55.2358 116.645 55.2358 110.245 60.9506L66.9887 99.5814C66.7045 99.8006 66.4289 100.031 66.1636 100.271L66.1898 100.295L66.1636 100.318C66.4289 100.559 66.7045 100.789 66.9886 101.008L110.245 139.638C116.645 145.353 126.355 145.353 132.755 139.638L176.012 101.008C176.296 100.789 176.572 100.559 176.837 100.318L176.81 100.295Z" fill="#24224E"/>
<path id="path16" d="M114.421 58.2112C114.423 58.2105 114.424 58.2097 114.426 58.2089C114.425 58.2097 114.422 58.2105 114.421 58.2112ZM114.461 58.1927C114.463 58.1919 114.466 58.1904 114.468 58.1896C114.466 58.1904 114.464 58.1919 114.461 58.1927ZM114.523 58.1649C114.527 58.1626 114.531 58.1611 114.535 58.1595C114.531 58.1611 114.526 58.1626 114.523 58.1649ZM114.593 58.1333C114.597 58.1317 114.602 58.1294 114.607 58.1271C114.602 58.1294 114.596 58.1317 114.593 58.1333ZM114.614 58.124C114.618 58.1217 114.623 58.1194 114.628 58.1178C114.623 58.1202 114.618 58.1217 114.614 58.124ZM114.656 58.1055C114.661 58.1032 114.666 58.1009 114.673 58.0978C114.667 58.1001 114.661 58.1032 114.656 58.1055ZM114.676 58.0962C114.683 58.0931 114.689 58.0908 114.695 58.0877C114.689 58.0908 114.683 58.0939 114.676 58.0962ZM117.958 57.0372C117.965 57.0357 117.973 57.0342 117.98 57.0326C117.973 57.0342 117.966 57.0357 117.958 57.0372ZM117.981 57.0318C117.989 57.0303 117.997 57.0287 118.004 57.0272C117.996 57.0287 117.989 57.0303 117.981 57.0318ZM118.004 57.0272C118.035 57.021 118.067 57.0141 118.097 57.0079C118.066 57.0149 118.035 57.021 118.004 57.0272ZM118.149 56.9979C118.153 56.9971 118.158 56.9956 118.163 56.9948C118.159 56.9956 118.153 56.9971 118.149 56.9979ZM118.194 56.9886C118.199 56.9878 118.203 56.9871 118.207 56.9863C118.203 56.9871 118.199 56.9878 118.194 56.9886ZM118.217 56.984C118.221 56.9832 118.225 56.9824 118.229 56.9817C118.225 56.9824 118.22 56.9832 118.217 56.984ZM118.262 56.9755C118.264 56.9747 118.266 56.9747 118.266 56.9747C118.265 56.9747 118.264 56.9747 118.262 56.9755ZM118.388 56.9516C118.389 56.9508 118.389 56.9508 118.391 56.9508C118.39 56.9508 118.388 56.9516 118.388 56.9516Z" fill="white"/>
<path id="path18" d="M173.344 103.241C173.199 103.115 173.051 102.99 172.9 102.869L169.046 99.3135V93.3609L176.012 99.5813C176.296 99.8005 176.571 100.031 176.837 100.271C176.706 100.152 176.572 100.037 176.437 99.9232C176.572 100.037 176.705 100.152 176.836 100.271L176.81 100.295L176.837 100.318C176.571 100.558 176.296 100.788 176.012 101.008L174.659 102.216L173.344 103.241ZM140.502 67.8695H134.976L129.644 62.9473C126.444 59.995 122.417 58.5184 118.39 58.5184C115.916 58.5184 113.441 59.0757 111.159 60.1903C112.179 59.4007 113.266 58.7446 114.402 58.2197C114.403 58.2197 114.404 58.2189 114.405 58.2189C114.41 58.2159 114.416 58.2135 114.421 58.2112C114.422 58.2105 114.425 58.2097 114.426 58.2089C114.431 58.2066 114.436 58.2043 114.441 58.202C114.443 58.2012 114.445 58.2004 114.447 58.1996C114.452 58.1973 114.456 58.195 114.461 58.1927C114.463 58.1919 114.466 58.1904 114.468 58.1896C114.473 58.1873 114.477 58.1858 114.482 58.1834C114.484 58.1827 114.486 58.1819 114.488 58.1804C114.492 58.1788 114.498 58.1765 114.502 58.1742C114.505 58.1726 114.507 58.1719 114.509 58.1711C114.514 58.1688 114.519 58.1665 114.523 58.1649C114.526 58.1626 114.531 58.1611 114.535 58.1595C114.54 58.1572 114.544 58.1549 114.55 58.1526C114.554 58.151 114.559 58.1487 114.564 58.1464C114.567 58.1448 114.568 58.1441 114.572 58.1425C114.576 58.141 114.581 58.1387 114.585 58.1371C114.587 58.1356 114.59 58.1348 114.592 58.1333C114.596 58.1317 114.602 58.1294 114.606 58.1271C114.609 58.1263 114.61 58.1256 114.613 58.124C114.618 58.1217 114.623 58.1202 114.628 58.1178C114.63 58.1163 114.632 58.1155 114.634 58.1147C114.639 58.1124 114.645 58.1101 114.649 58.1078C114.652 58.107 114.653 58.1063 114.655 58.1055C114.661 58.1032 114.667 58.1001 114.673 58.0978C114.673 58.0978 114.675 58.097 114.676 58.0962C114.683 58.0939 114.689 58.0908 114.695 58.0877C114.696 58.0877 114.697 58.0877 114.697 58.087C115.752 57.6238 116.845 57.2742 117.958 57.0372H117.958C117.966 57.0357 117.973 57.0341 117.98 57.0326C117.981 57.0326 117.981 57.0326 117.981 57.0318C117.989 57.0303 117.996 57.0287 118.004 57.0272C118.004 57.0272 118.004 57.0272 118.004 57.0272C118.035 57.021 118.066 57.0148 118.097 57.0079C118.098 57.0079 118.098 57.0079 118.098 57.0079C118.105 57.0064 118.112 57.0048 118.119 57.004C118.121 57.0033 118.122 57.0033 118.124 57.0025C118.129 57.0017 118.136 57.0002 118.141 56.9994C118.143 56.9986 118.146 56.9986 118.149 56.9979C118.153 56.9971 118.159 56.9956 118.163 56.9948C118.166 56.994 118.169 56.994 118.171 56.9932C118.176 56.9925 118.18 56.9917 118.185 56.9902C118.189 56.9902 118.191 56.9894 118.194 56.9886C118.199 56.9878 118.203 56.9871 118.207 56.9863C118.21 56.9855 118.213 56.9847 118.217 56.984C118.22 56.9832 118.225 56.9824 118.229 56.9817C118.232 56.9809 118.236 56.9801 118.239 56.9793C118.243 56.9793 118.246 56.9786 118.25 56.9778C118.254 56.977 118.258 56.9763 118.262 56.9755C118.264 56.9747 118.265 56.9747 118.266 56.9747C118.293 56.9693 118.319 56.9647 118.346 56.9593C118.346 56.9593 118.347 56.9593 118.348 56.9593C118.354 56.9577 118.36 56.9562 118.367 56.9554C118.367 56.9554 118.368 56.9554 118.369 56.9547C118.375 56.9539 118.381 56.9523 118.388 56.9516C118.388 56.9516 118.39 56.9508 118.391 56.9508C118.397 56.95 118.403 56.9485 118.409 56.9477C118.41 56.9469 118.411 56.9469 118.412 56.9469C119.432 56.7586 120.466 56.6644 121.5 56.6644C125.527 56.6644 129.556 58.0931 132.755 60.9506L140.502 67.8695Z" fill="#4C4988"/>
<path id="path20" d="M158.88 67.8695H83.7472C78.1323 67.8695 73.5803 72.3887 73.5803 77.9646V144.038C73.5803 149.613 78.1323 154.133 83.7472 154.133H158.88C164.495 154.133 169.046 149.613 169.046 144.038V77.9646C169.046 72.3887 164.495 67.8695 158.88 67.8695Z" fill="#E9F2E1"/>
<path id="path22" d="M66.994 99.5759C66.8517 99.6863 66.7118 99.7982 66.5742 99.914C66.7101 99.8005 66.8482 99.6894 66.9885 99.5813L66.994 99.5759Z" fill="#FDB402"/>
<path id="path24" d="M176.437 99.9233C176.572 100.037 176.706 100.153 176.837 100.271L176.81 100.295L176.837 100.318C176.571 100.559 176.296 100.789 176.012 101.008L132.755 139.638C126.355 145.353 116.645 145.353 110.245 139.638L66.9885 101.008C66.7044 100.789 66.4288 100.559 66.1635 100.318L66.1898 100.295L66.1635 100.271C66.2942 100.153 66.4274 100.037 66.5628 99.9233C63.6235 102.389 61.7561 106.074 61.7561 110.194V164.952C61.7561 172.373 67.8152 178.39 75.2896 178.39H167.71C175.185 178.39 181.244 172.373 181.244 164.952V110.194C181.244 106.074 179.377 102.389 176.437 99.9233Z" fill="#4C4988"/>
<path id="path26" d="M176.426 99.914C176.288 99.7982 176.149 99.6855 176.006 99.5759L176.012 99.5813C176.152 99.6894 176.29 99.8005 176.426 99.914Z" fill="#FDB402"/>
<path id="path28" d="M73.5804 106.895L68.3408 102.216L73.5804 106.303V106.895Z" fill="#24224E"/>
<path id="path30" d="M108.059 137.686L73.5803 106.895V106.303L108.963 133.904C109.568 134.376 110.199 134.807 110.853 135.2L108.059 137.686Z" fill="#D1D9CA"/>
<path id="path32" d="M108.051 137.692L68.2285 102.128L68.3409 102.216L73.5805 106.895L108.059 137.686L108.051 137.692Z" fill="#24224E"/>
<path id="path34" d="M169.046 107.228V106.594L173.344 103.241C173.372 103.266 173.4 103.291 173.428 103.316L174.659 102.216V102.215L169.046 107.228Z" fill="#24224E"/>
<path id="path36" d="M173.428 103.316C173.4 103.291 173.372 103.266 173.344 103.241L174.659 102.216L173.428 103.316Z" fill="#24224E"/>
<path id="path38" d="M134.941 137.686L132.147 135.2C132.801 134.807 133.432 134.376 134.037 133.904L169.046 106.594V107.228L134.941 137.686Z" fill="#D1D9CA"/>
<path id="path40" d="M134.949 137.692L134.941 137.686L169.046 107.228L174.659 102.215L174.772 102.128L134.949 137.692Z" fill="#24224E"/>
<path id="path42" d="M61.7613 165.328C61.7612 165.327 61.7612 165.327 61.7612 165.327C61.7612 165.327 61.7612 165.327 61.7613 165.328ZM61.7608 165.31C61.7607 165.31 61.7607 165.309 61.7607 165.307C61.7607 165.308 61.7607 165.31 61.7608 165.31ZM61.7591 165.24C61.7591 165.239 61.759 165.239 61.759 165.237C61.759 165.238 61.7591 165.239 61.7591 165.24ZM61.7588 165.225C61.7587 165.223 61.7587 165.219 61.7587 165.217C61.7587 165.22 61.7587 165.222 61.7588 165.225ZM61.7584 165.206C61.7583 165.203 61.7583 165.2 61.7583 165.197C61.7583 165.2 61.7583 165.202 61.7584 165.206ZM61.7577 165.167C61.7577 165.161 61.7576 165.155 61.7575 165.148C61.7576 165.155 61.7577 165.16 61.7577 165.167ZM61.7569 165.099C61.7568 165.095 61.7568 165.091 61.7567 165.087C61.7568 165.092 61.7568 165.095 61.7569 165.099ZM61.7563 165.034C61.7563 165.03 61.7563 165.024 61.7563 165.02C61.7563 165.025 61.7563 165.029 61.7563 165.034Z" fill="#FEFEFE"/>
<path id="path44" d="M67.9796 101.893L66.9885 101.008L67.9797 101.893" fill="#FDB648"/>
<path id="path46" d="M63.8414 171.517C63.5851 171.286 63.3378 171.045 63.1 170.795C62.2907 169.134 61.8155 167.283 61.7613 165.328C61.7612 165.327 61.7612 165.327 61.7612 165.327C61.7611 165.321 61.7609 165.316 61.7608 165.31C61.7608 165.31 61.7608 165.308 61.7607 165.307C61.7606 165.303 61.7605 165.297 61.7603 165.292C61.7603 165.291 61.7603 165.29 61.7602 165.289C61.7598 165.273 61.7594 165.256 61.7591 165.24C61.7591 165.239 61.7591 165.238 61.7591 165.237C61.759 165.233 61.7589 165.229 61.7588 165.225C61.7587 165.222 61.7587 165.22 61.7587 165.217C61.7586 165.213 61.7585 165.209 61.7584 165.205C61.7584 165.202 61.7584 165.2 61.7583 165.197C61.7582 165.194 61.7581 165.19 61.7581 165.186C61.758 165.183 61.758 165.18 61.758 165.177C61.7579 165.173 61.7578 165.17 61.7577 165.167C61.7577 165.16 61.7576 165.155 61.7575 165.148C61.7574 165.146 61.7574 165.143 61.7573 165.141C61.7573 165.137 61.7573 165.132 61.7572 165.128C61.7572 165.125 61.7571 165.122 61.7571 165.12C61.757 165.116 61.757 165.112 61.757 165.108C61.757 165.105 61.7569 165.102 61.7569 165.099C61.7568 165.095 61.7568 165.092 61.7567 165.087C61.7567 165.085 61.7567 165.082 61.7567 165.079C61.7567 165.075 61.7566 165.07 61.7566 165.066C61.7565 165.063 61.7565 165.061 61.7565 165.059C61.7564 165.053 61.7564 165.046 61.7563 165.04C61.7563 165.038 61.7563 165.036 61.7563 165.034C61.7563 165.029 61.7563 165.025 61.7563 165.019C61.7563 165.017 61.7562 165.015 61.7562 165.013C61.7562 165.008 61.7562 165.003 61.7562 164.999C61.7562 164.996 61.7561 164.994 61.7561 164.992C61.7561 164.987 61.7561 164.982 61.7561 164.978C61.7561 164.976 61.7561 164.973 61.7561 164.972C61.7561 164.965 61.7561 164.958 61.7561 164.952V110.194C61.7561 106.263 63.4556 102.728 66.1639 100.271L66.1898 100.295L66.1635 100.318C66.4288 100.558 66.7044 100.788 66.9885 101.008L67.9797 101.893C64.9764 104.358 63.0624 108.085 63.0624 112.256V167.014C63.0624 168.593 63.3371 170.109 63.8414 171.517Z" fill="#24224E"/>
<path id="path48" d="M66.164 100.271L66.1636 100.271C66.2942 100.152 66.4274 100.037 66.5628 99.9233C66.4276 100.037 66.2946 100.152 66.164 100.271Z" fill="#FDC848"/>
<path id="path50" d="M110.724 140.062C110.585 139.948 110.448 139.831 110.314 139.712C110.311 139.709 110.308 139.706 110.305 139.704C110.443 139.826 110.583 139.946 110.724 140.062Z" fill="#E3A202"/>
<path id="path52" d="M115.579 137.244C113.926 136.768 112.333 136.086 110.854 135.199L111.133 134.951C114.173 132.276 117.836 130.939 121.5 130.939C125.164 130.939 128.827 132.276 131.868 134.951L132.147 135.199C130.667 136.086 129.075 136.768 127.421 137.244C125.516 136.529 123.508 136.172 121.5 136.172C119.492 136.172 117.484 136.529 115.579 137.244Z" fill="#D1D9CA"/>
<path id="path54" d="M110.731 140.056C110.567 139.92 110.405 139.78 110.245 139.638L108.059 137.686L110.853 135.199C112.333 136.086 113.926 136.768 115.579 137.244C114.008 137.834 112.506 138.667 111.132 139.742L110.731 140.056ZM132.269 140.056L131.868 139.742C130.494 138.667 128.992 137.834 127.421 137.244C129.075 136.768 130.667 136.086 132.147 135.199L134.941 137.686L132.755 139.638C132.595 139.78 132.433 139.92 132.269 140.056Z" fill="#BCC3B5"/>
<path id="path56" d="M110.724 140.062C110.583 139.946 110.443 139.826 110.305 139.704C110.284 139.685 110.262 139.665 110.239 139.646L108.051 137.692L108.059 137.686L110.245 139.638C110.405 139.78 110.567 139.92 110.731 140.056L110.724 140.062ZM132.276 140.062L132.269 140.056C132.433 139.92 132.595 139.78 132.755 139.638L134.941 137.686L134.949 137.692L132.76 139.646C132.601 139.788 132.44 139.927 132.276 140.062Z" fill="#CC9102"/>
<path id="path58" d="M75.2735 178.39C71.9292 178.387 68.8929 177.414 66.5352 175.2C68.573 176.918 71.1293 178.047 73.9388 178.323H73.9389C73.9589 178.326 73.9791 178.327 73.9991 178.329C74.0001 178.329 74.001 178.329 74.002 178.329C74.0158 178.331 74.0298 178.332 74.0437 178.333C74.0453 178.333 74.0464 178.333 74.0479 178.333C74.0524 178.334 74.0567 178.334 74.0612 178.335C74.0618 178.335 74.0624 178.335 74.063 178.335C74.072 178.336 74.0818 178.336 74.0907 178.337C74.0914 178.337 74.0921 178.337 74.0927 178.338C74.0971 178.338 74.1013 178.338 74.1057 178.339C74.1073 178.339 74.1087 178.339 74.1104 178.339C74.1237 178.34 74.1373 178.341 74.1506 178.343C74.1523 178.343 74.154 178.343 74.1556 178.343C74.1596 178.343 74.164 178.343 74.168 178.344C74.1696 178.344 74.1714 178.344 74.1729 178.344C74.1806 178.345 74.189 178.346 74.1967 178.346C74.198 178.346 74.1994 178.346 74.2006 178.346C74.2051 178.347 74.2086 178.347 74.2131 178.347C74.2147 178.348 74.2168 178.348 74.2184 178.348C74.2225 178.348 74.2265 178.349 74.2305 178.349C74.2318 178.349 74.2336 178.349 74.2349 178.35C74.2425 178.35 74.2494 178.35 74.257 178.351C74.2596 178.351 74.2616 178.351 74.2641 178.351C74.2677 178.352 74.2712 178.352 74.2748 178.352C74.2777 178.353 74.2805 178.353 74.2834 178.353C74.2884 178.353 74.2937 178.353 74.2986 178.354C74.3021 178.354 74.3056 178.354 74.3091 178.355C74.3127 178.355 74.3153 178.355 74.3189 178.356C74.3221 178.356 74.3248 178.356 74.328 178.356C74.3316 178.356 74.3342 178.356 74.3377 178.356C74.343 178.357 74.3478 178.357 74.3529 178.358C74.3561 178.358 74.3592 178.358 74.3623 178.358C74.3659 178.359 74.3691 178.359 74.3726 178.359C74.3757 178.36 74.3789 178.36 74.3821 178.36C74.3853 178.36 74.3888 178.36 74.392 178.36C74.396 178.36 74.4001 178.361 74.4041 178.361C74.4083 178.361 74.4131 178.362 74.4173 178.362C74.4204 178.362 74.4236 178.363 74.4267 178.363C74.43 178.363 74.4329 178.363 74.4361 178.363C74.4393 178.363 74.4423 178.363 74.4455 178.363C74.4496 178.364 74.4533 178.364 74.4575 178.364C74.4616 178.365 74.4659 178.365 74.4699 178.365C74.4735 178.366 74.4776 178.366 74.4812 178.366C74.4839 178.366 74.4871 178.366 74.4898 178.366C74.4933 178.366 74.4971 178.366 74.5007 178.367C74.5033 178.367 74.506 178.367 74.5087 178.367C74.5109 178.367 74.5135 178.368 74.5158 178.368C74.5162 178.368 74.5161 178.368 74.5165 178.368C74.5194 178.368 74.5228 178.368 74.5256 178.368C74.5283 178.369 74.5312 178.369 74.5339 178.369C74.5374 178.369 74.5413 178.37 74.5448 178.37C74.548 178.37 74.5503 178.37 74.5535 178.37C74.558 178.37 74.5624 178.37 74.5669 178.37C74.5701 178.371 74.5734 178.371 74.5765 178.371C74.5767 178.371 74.5775 178.371 74.5777 178.371C74.5813 178.371 74.5852 178.372 74.5888 178.372C74.5919 178.372 74.5953 178.372 74.5984 178.372C74.6016 178.373 74.6049 178.373 74.6082 178.373C74.6113 178.373 74.6142 178.373 74.6174 178.373C74.6229 178.373 74.6284 178.373 74.6339 178.374C74.637 178.374 74.6395 178.374 74.6426 178.374C74.6459 178.374 74.6498 178.375 74.6531 178.375C74.6562 178.375 74.6583 178.375 74.6615 178.375C74.6657 178.376 74.6698 178.376 74.674 178.376C74.6776 178.376 74.6822 178.376 74.6858 178.377C74.6896 178.377 74.6938 178.377 74.6977 178.377C74.698 178.377 74.6983 178.377 74.6985 178.377C74.7011 178.377 74.7036 178.377 74.7063 178.377C74.7099 178.377 74.713 178.377 74.7165 178.377C74.7176 178.377 74.7186 178.377 74.7196 178.378C74.7214 178.378 74.7232 178.378 74.7249 178.378C74.7295 178.378 74.7335 178.378 74.7381 178.378C74.7383 178.379 74.739 178.379 74.7392 178.379C74.7405 178.379 74.7418 178.379 74.7431 178.379C74.7448 178.379 74.7475 178.379 74.7493 178.379C74.7538 178.379 74.7579 178.379 74.7625 178.38C74.7647 178.38 74.7675 178.38 74.7698 178.38C74.7727 178.38 74.7752 178.38 74.7782 178.38C74.7792 178.38 74.7802 178.38 74.7812 178.38C74.7829 178.38 74.7842 178.38 74.7858 178.38C74.7867 178.38 74.7877 178.38 74.7885 178.38C74.7915 178.38 74.7951 178.38 74.798 178.38C74.7991 178.38 74.7998 178.38 74.8008 178.381C74.8031 178.381 74.8049 178.381 74.8072 178.381C74.8095 178.381 74.8116 178.381 74.8139 178.381C74.8185 178.381 74.8228 178.382 74.8273 178.382C74.8296 178.382 74.8314 178.382 74.8336 178.382C74.8356 178.382 74.837 178.382 74.839 178.382C74.8403 178.382 74.8416 178.382 74.8429 178.382C74.8458 178.382 74.8492 178.383 74.8521 178.383C74.8539 178.383 74.8554 178.383 74.8572 178.383C74.8579 178.383 74.8578 178.383 74.8585 178.383C74.86 178.383 74.8611 178.383 74.8625 178.383C74.8655 178.383 74.8687 178.383 74.8716 178.383C74.8739 178.383 74.8757 178.383 74.8781 178.383C74.8787 178.383 74.8799 178.383 74.8805 178.383C74.8807 178.383 74.8811 178.383 74.8813 178.383C74.8852 178.383 74.8887 178.383 74.8926 178.383C74.8945 178.383 74.896 178.383 74.8979 178.384C74.8985 178.384 74.8996 178.384 74.9003 178.384C74.9015 178.384 74.9029 178.384 74.9042 178.384C74.9084 178.384 74.9121 178.384 74.9163 178.384C74.9181 178.384 74.919 178.384 74.9208 178.384C74.9222 178.384 74.9229 178.384 74.9242 178.384C74.9277 178.385 74.9319 178.385 74.9355 178.385C74.9378 178.385 74.9398 178.385 74.942 178.385C74.9423 178.385 74.9428 178.385 74.943 178.385C74.9492 178.385 74.9547 178.385 74.9609 178.386C74.9614 178.386 74.962 178.386 74.9625 178.386C74.9636 178.386 74.965 178.386 74.966 178.386C74.9709 178.386 74.9758 178.386 74.9807 178.386C74.9825 178.386 74.9852 178.386 74.987 178.386C74.9916 178.387 74.9958 178.387 75.0004 178.387C75.0016 178.387 75.003 178.387 75.0043 178.387C75.0053 178.387 75.0054 178.387 75.0063 178.387C75.0125 178.387 75.0191 178.387 75.0253 178.387C75.0276 178.387 75.0288 178.387 75.0311 178.387C75.035 178.387 75.0386 178.387 75.0425 178.387C75.044 178.387 75.0451 178.387 75.0465 178.387C75.0479 178.387 75.0498 178.387 75.0511 178.387C75.0548 178.387 75.0583 178.387 75.0619 178.387C75.0632 178.387 75.0649 178.387 75.0661 178.387C75.0677 178.387 75.0689 178.387 75.0705 178.387C75.0715 178.387 75.0722 178.387 75.0731 178.388C75.0767 178.388 75.0805 178.388 75.0841 178.388C75.0843 178.388 75.0849 178.388 75.0852 178.388C75.0868 178.388 75.0885 178.388 75.0901 178.388C75.092 178.388 75.0939 178.388 75.0957 178.388C75.0986 178.388 75.1011 178.388 75.104 178.388C75.1055 178.388 75.1071 178.388 75.1086 178.388C75.1096 178.388 75.1102 178.388 75.1112 178.388C75.113 178.388 75.1141 178.388 75.1159 178.388C75.1182 178.388 75.1201 178.388 75.1224 178.388C75.1243 178.388 75.1267 178.388 75.1286 178.388C75.1306 178.389 75.133 178.389 75.135 178.389C75.1363 178.389 75.1385 178.389 75.1398 178.389C75.1411 178.389 75.142 178.389 75.1433 178.389C75.1446 178.389 75.1459 178.389 75.1471 178.389C75.1498 178.389 75.1523 178.389 75.155 178.389C75.1568 178.389 75.1587 178.389 75.1605 178.389C75.1624 178.389 75.1637 178.389 75.1656 178.389C75.1671 178.389 75.1686 178.389 75.1701 178.389C75.1734 178.389 75.1767 178.389 75.18 178.389C75.1805 178.389 75.1807 178.389 75.1812 178.389C75.1822 178.389 75.1833 178.389 75.1843 178.389C75.1865 178.389 75.1882 178.389 75.1903 178.389C75.1933 178.389 75.1963 178.389 75.1993 178.389C75.2011 178.389 75.2029 178.389 75.2047 178.389C75.2064 178.389 75.2078 178.389 75.2095 178.389C75.2132 178.389 75.2173 178.389 75.2209 178.389C75.2223 178.389 75.2235 178.389 75.2249 178.39C75.2259 178.39 75.2268 178.39 75.2278 178.39C75.2287 178.39 75.229 178.39 75.2298 178.39C75.2347 178.39 75.2395 178.39 75.2444 178.39C75.2453 178.39 75.2463 178.39 75.2472 178.39C75.2489 178.39 75.2504 178.39 75.2521 178.39C75.2561 178.39 75.2605 178.39 75.2643 178.39C75.2657 178.39 75.267 178.39 75.2684 178.39C75.2692 178.39 75.2703 178.39 75.2712 178.39C75.2721 178.39 75.2725 178.39 75.2735 178.39Z" fill="#24224E"/>
<path id="path60" d="M75.2683 178.39C75.2669 178.39 75.2656 178.39 75.2642 178.39C75.2646 178.39 75.2649 178.39 75.2652 178.39C75.2663 178.39 75.2672 178.39 75.2683 178.39ZM75.2471 178.39C75.2462 178.39 75.2452 178.39 75.2443 178.39C75.245 178.39 75.2454 178.39 75.246 178.39C75.2464 178.39 75.2467 178.39 75.2471 178.39ZM75.2248 178.39C75.2234 178.389 75.2222 178.389 75.2208 178.389C75.2221 178.389 75.2235 178.389 75.2248 178.39ZM75.2046 178.389C75.2028 178.389 75.201 178.389 75.1992 178.389C75.2004 178.389 75.2017 178.389 75.2031 178.389C75.2035 178.389 75.2042 178.389 75.2046 178.389ZM75.1811 178.389C75.1806 178.389 75.1804 178.389 75.1799 178.389C75.1806 178.389 75.1804 178.389 75.1811 178.389ZM75.1604 178.389C75.1586 178.389 75.1567 178.389 75.1549 178.389C75.1565 178.389 75.1588 178.389 75.1604 178.389ZM75.1397 178.389C75.1384 178.389 75.1362 178.389 75.1349 178.389C75.1365 178.389 75.1381 178.389 75.1397 178.389ZM75.1158 178.388C75.114 178.388 75.1129 178.388 75.1111 178.388C75.1127 178.388 75.1141 178.388 75.1158 178.388ZM75.0956 178.388C75.0938 178.388 75.0919 178.388 75.09 178.388C75.0917 178.388 75.0939 178.388 75.0956 178.388ZM75.073 178.388C75.0721 178.387 75.0714 178.387 75.0705 178.387C75.0711 178.387 75.0724 178.388 75.073 178.388ZM75.051 178.387C75.0497 178.387 75.0478 178.387 75.0464 178.387H75.0469C75.0482 178.387 75.0498 178.387 75.051 178.387ZM75.031 178.387C75.0287 178.387 75.0275 178.387 75.0252 178.387C75.0272 178.387 75.029 178.387 75.031 178.387ZM75.0062 178.387C75.0053 178.387 75.0052 178.387 75.0042 178.387C75.0045 178.387 75.0044 178.387 75.0046 178.387C75.0052 178.387 75.0055 178.387 75.0062 178.387ZM74.9869 178.386C74.9851 178.386 74.9824 178.386 74.9806 178.386H74.9807C74.9822 178.386 74.984 178.386 74.9855 178.386C74.9858 178.386 74.9866 178.386 74.9869 178.386ZM74.9624 178.386C74.9619 178.386 74.9613 178.386 74.9609 178.386H74.9614C74.9619 178.386 74.962 178.386 74.9624 178.386ZM74.942 178.385C74.9397 178.385 74.9377 178.385 74.9354 178.385C74.9371 178.385 74.9381 178.385 74.9397 178.385C74.9406 178.385 74.9411 178.385 74.942 178.385ZM74.9207 178.384C74.919 178.384 74.918 178.384 74.9162 178.384C74.9172 178.384 74.9184 178.384 74.9194 178.384C74.9198 178.384 74.9204 178.384 74.9207 178.384ZM74.8978 178.384C74.8959 178.383 74.8944 178.383 74.8925 178.383C74.8942 178.383 74.8962 178.383 74.8978 178.384ZM74.8571 178.383C74.8553 178.383 74.8538 178.383 74.852 178.383C74.8537 178.383 74.8555 178.383 74.8571 178.383ZM74.8335 178.382C74.8313 178.382 74.8295 178.382 74.8272 178.382C74.8292 178.382 74.8316 178.382 74.8335 178.382ZM74.7884 178.38C74.7876 178.38 74.7866 178.38 74.7857 178.38C74.7867 178.38 74.7875 178.38 74.7884 178.38ZM74.7492 178.379C74.7474 178.379 74.7447 178.379 74.743 178.379C74.7449 178.379 74.7472 178.379 74.7492 178.379ZM74.7248 178.378C74.7231 178.378 74.7213 178.378 74.7195 178.378C74.7197 178.378 74.7202 178.378 74.7204 178.378C74.7217 178.378 74.7236 178.378 74.7248 178.378ZM74.7062 178.377C74.7035 178.377 74.7011 178.377 74.6984 178.377C74.699 178.377 74.6993 178.377 74.7 178.377C74.7019 178.377 74.7042 178.377 74.7062 178.377ZM74.6857 178.377C74.6821 178.376 74.6775 178.376 74.6739 178.376C74.6778 178.376 74.6818 178.376 74.6857 178.377ZM74.6614 178.375C74.6582 178.375 74.6561 178.375 74.653 178.375C74.6539 178.375 74.6546 178.375 74.6557 178.375C74.6567 178.375 74.6581 178.375 74.6592 178.375C74.6598 178.375 74.6608 178.375 74.6614 178.375ZM74.6425 178.374C74.6394 178.374 74.6369 178.374 74.6338 178.374C74.6344 178.374 74.6357 178.374 74.6363 178.374C74.6376 178.374 74.6386 178.374 74.6398 178.374C74.6407 178.374 74.6416 178.374 74.6425 178.374ZM74.6173 178.373C74.6142 178.373 74.6112 178.373 74.6081 178.373C74.6113 178.373 74.6141 178.373 74.6173 178.373ZM74.5983 178.372C74.5952 178.372 74.5918 178.372 74.5887 178.372C74.591 178.372 74.5934 178.372 74.5956 178.372C74.5963 178.372 74.597 178.372 74.5977 178.372C74.598 178.372 74.598 178.372 74.5983 178.372ZM74.5764 178.371C74.5733 178.371 74.57 178.371 74.5668 178.37C74.5697 178.37 74.5732 178.371 74.5761 178.371C74.5764 178.371 74.5762 178.371 74.5764 178.371ZM74.5534 178.37C74.5502 178.37 74.5479 178.37 74.5447 178.37C74.5477 178.37 74.5504 178.37 74.5534 178.37ZM74.5338 178.369C74.5311 178.369 74.5283 178.369 74.5255 178.368C74.5285 178.369 74.5309 178.369 74.5338 178.369ZM74.5086 178.367C74.5059 178.367 74.5032 178.367 74.5006 178.367C74.5035 178.367 74.5056 178.367 74.5086 178.367ZM74.4897 178.366C74.487 178.366 74.4838 178.366 74.4811 178.366C74.484 178.366 74.4867 178.366 74.4897 178.366ZM74.4698 178.365C74.4658 178.365 74.4615 178.365 74.4574 178.364C74.4616 178.365 74.4656 178.365 74.4698 178.365ZM74.4454 178.363C74.4422 178.363 74.4392 178.363 74.436 178.363C74.4389 178.363 74.4424 178.363 74.4454 178.363ZM74.4267 178.363C74.4235 178.363 74.4203 178.362 74.4172 178.362C74.4204 178.362 74.4235 178.363 74.4267 178.363ZM74.404 178.361C74.4 178.361 74.3959 178.36 74.3919 178.36C74.3961 178.36 74.3998 178.361 74.404 178.361ZM74.382 178.36C74.3788 178.36 74.3757 178.36 74.3725 178.359C74.3757 178.36 74.3788 178.36 74.382 178.36ZM74.3622 178.358C74.3591 178.358 74.356 178.358 74.3528 178.358C74.3558 178.358 74.3593 178.358 74.3622 178.358ZM74.3376 178.356C74.3341 178.356 74.3315 178.356 74.3279 178.356C74.3311 178.356 74.3345 178.356 74.3376 178.356ZM74.3188 178.356C74.3153 178.355 74.3126 178.355 74.309 178.355C74.3123 178.355 74.3156 178.355 74.3188 178.356ZM74.2985 178.354C74.2936 178.353 74.2883 178.353 74.2833 178.353C74.2881 178.353 74.2937 178.353 74.2985 178.354ZM74.2747 178.352C74.2711 178.352 74.2676 178.352 74.264 178.351C74.2675 178.352 74.2712 178.352 74.2747 178.352ZM74.257 178.351C74.2493 178.35 74.2424 178.35 74.2348 178.35C74.2422 178.35 74.2496 178.35 74.257 178.351ZM74.2305 178.349C74.2264 178.349 74.2224 178.348 74.2183 178.348C74.2225 178.348 74.2263 178.349 74.2305 178.349ZM74.213 178.347C74.2085 178.347 74.205 178.347 74.2005 178.346C74.2047 178.347 74.2088 178.347 74.213 178.347ZM74.1966 178.346C74.1889 178.346 74.1805 178.345 74.1728 178.344C74.1809 178.345 74.1886 178.346 74.1966 178.346ZM74.168 178.344C74.1639 178.343 74.1596 178.343 74.1555 178.343C74.1597 178.343 74.1638 178.343 74.168 178.344ZM74.1505 178.343C74.1372 178.341 74.1236 178.34 74.1103 178.339C74.1237 178.34 74.1371 178.341 74.1505 178.343ZM74.1056 178.339C74.1012 178.338 74.0971 178.338 74.0926 178.338C74.0971 178.338 74.1011 178.338 74.1056 178.339ZM74.0906 178.337C74.0817 178.336 74.0719 178.336 74.0629 178.335C74.0719 178.336 74.0817 178.336 74.0906 178.337ZM74.0611 178.335C74.0566 178.334 74.0523 178.334 74.0479 178.333C74.0524 178.334 74.0566 178.334 74.0611 178.335ZM74.0436 178.333C74.0297 178.332 74.0157 178.331 74.0019 178.329C74.0156 178.331 74.0298 178.332 74.0436 178.333ZM73.999 178.329C73.979 178.327 73.9588 178.326 73.9388 178.323C73.9589 178.326 73.9789 178.327 73.999 178.329ZM73.9387 178.323C71.1292 178.047 68.5729 176.918 66.5351 175.2C66.5343 175.199 66.5337 175.198 66.533 175.197C68.5709 176.916 71.1284 178.047 73.9387 178.323ZM67.5127 173.884C67.4812 173.87 67.4495 173.856 67.4181 173.842L108.051 137.692L110.239 139.646C110.264 139.668 110.289 139.69 110.314 139.712C110.448 139.831 110.585 139.948 110.724 140.062L67.5127 173.884ZM173.486 172.317L132.276 140.062C132.44 139.927 132.601 139.788 132.76 139.646L134.949 137.692L173.692 172.161C173.624 172.213 173.555 172.266 173.486 172.317Z" fill="#24224E"/>
<path id="path66" d="M110.313 139.712C110.289 139.69 110.264 139.668 110.239 139.647C110.262 139.666 110.283 139.685 110.305 139.704C110.307 139.706 110.31 139.71 110.313 139.712Z" fill="#E88202"/>
<path id="path68" d="M66.2021 174.909C68.6042 177.072 71.7918 178.39 75.2895 178.39H167.71C171.209 178.39 174.396 177.072 176.798 174.909L131.868 139.742C125.787 134.982 117.213 134.982 111.132 139.742L66.2021 174.909Z" fill="#4C4988"/>
<path id="path86" d="M75.2282 178.39C75.2272 178.39 75.2262 178.39 75.2253 178.39C75.2257 178.39 75.2259 178.39 75.2264 178.39C75.2268 178.39 75.2277 178.39 75.2282 178.39ZM75.2211 178.389C75.2174 178.389 75.2132 178.389 75.2095 178.389C75.2121 178.389 75.2147 178.389 75.2173 178.389C75.2186 178.389 75.2198 178.389 75.2211 178.389Z" fill="#FFBCBC"/>
<path id="path88" d="M75.2245 178.39C75.2241 178.39 75.224 178.39 75.2236 178.39C75.2225 178.389 75.2213 178.389 75.2202 178.389C75.2191 178.389 75.2182 178.389 75.217 178.389C75.2195 178.389 75.222 178.389 75.2245 178.39Z" fill="#FD8502"/>
<path id="path110" d="M75.1432 178.389C75.1419 178.389 75.141 178.389 75.1397 178.389C75.1402 178.389 75.1407 178.389 75.1411 178.389C75.1417 178.389 75.1426 178.389 75.1432 178.389ZM75.135 178.389C75.133 178.389 75.1307 178.389 75.1287 178.388C75.1297 178.389 75.1305 178.389 75.1316 178.389C75.1329 178.389 75.1336 178.389 75.135 178.389Z" fill="#FFBCBC"/>
<path id="path126" d="M75.0846 178.388C75.0809 178.388 75.077 178.388 75.0733 178.388C75.0748 178.388 75.0771 178.388 75.0785 178.388C75.0807 178.388 75.0824 178.388 75.0846 178.388ZM75.0707 178.387C75.069 178.387 75.0678 178.387 75.0662 178.387C75.0666 178.387 75.067 178.387 75.0674 178.387C75.0689 178.387 75.0693 178.387 75.0707 178.387Z" fill="#FFBCBC"/>
<path id="path128" d="M75.0787 178.388C75.0772 178.388 75.0749 178.388 75.0734 178.388C75.0727 178.388 75.0714 178.387 75.0707 178.387C75.0693 178.387 75.0688 178.387 75.0674 178.387C75.0712 178.387 75.0749 178.388 75.0787 178.388Z" fill="#FD8502"/>
<path id="path138" d="M75.0419 178.387C75.0381 178.387 75.0346 178.387 75.0307 178.387C75.0325 178.387 75.0341 178.387 75.0359 178.387C75.0377 178.387 75.04 178.387 75.0419 178.387ZM75.0251 178.387C75.0189 178.387 75.0125 178.387 75.0063 178.387C75.0091 178.387 75.0128 178.387 75.0154 178.387C75.0186 178.387 75.0215 178.387 75.0247 178.387H75.0251Z" fill="#FFBCBC"/>
<path id="path140" d="M75.0356 178.387C75.0339 178.387 75.0323 178.387 75.0305 178.387C75.0285 178.387 75.0267 178.387 75.0248 178.387H75.0244C75.0282 178.387 75.0319 178.387 75.0356 178.387ZM75.0152 178.387C75.0126 178.387 75.0089 178.387 75.0062 178.387C75.0056 178.387 75.0052 178.387 75.0046 178.387C75.0081 178.387 75.0117 178.387 75.0152 178.387Z" fill="#FD8502"/>
<path id="path146" d="M75.0002 178.386C74.9957 178.386 74.9916 178.386 74.9871 178.386C74.9893 178.386 74.9916 178.386 74.9938 178.386C74.9959 178.386 74.998 178.386 75.0002 178.386Z" fill="#FFBCBC"/>
<path id="path148" d="M74.9927 178.386C74.9907 178.386 74.9888 178.386 74.9868 178.386C74.9865 178.386 74.9859 178.386 74.9856 178.386C74.988 178.386 74.9903 178.386 74.9927 178.386Z" fill="#FD8502"/>
<path id="path150" d="M168.007 178.386C168.012 178.386 168.016 178.386 168.022 178.386C168.016 178.386 168.011 178.386 168.007 178.386Z" fill="#FDA602"/>
<path id="path158" d="M74.9613 178.386C74.9549 178.385 74.9493 178.385 74.9429 178.385C74.9444 178.385 74.9458 178.385 74.9473 178.385C74.952 178.385 74.9567 178.386 74.9613 178.386Z" fill="#FFBCBC"/>
<path id="path160" d="M74.9613 178.386H74.9607C74.9563 178.386 74.9518 178.385 74.9473 178.385C74.9519 178.385 74.9566 178.386 74.9613 178.386Z" fill="#FD8502"/>
<path id="path164" d="M74.9359 178.385C74.9321 178.385 74.9278 178.385 74.9241 178.384C74.9254 178.384 74.9269 178.385 74.9282 178.385C74.9306 178.385 74.9335 178.385 74.9359 178.385Z" fill="#FFBCBC"/>
<path id="path174" d="M74.9006 178.384C74.8999 178.384 74.8988 178.384 74.8982 178.384C74.8987 178.384 74.8998 178.384 74.9002 178.384C74.9004 178.384 74.9004 178.384 74.9006 178.384ZM74.8928 178.383C74.8889 178.383 74.8853 178.383 74.8813 178.383C74.8835 178.383 74.8858 178.383 74.888 178.383C74.8898 178.383 74.891 178.383 74.8928 178.383Z" fill="#FFBCBC"/>
<path id="path176" d="M74.9003 178.384C74.8998 178.384 74.8986 178.384 74.8982 178.384C74.8965 178.383 74.8944 178.383 74.8927 178.383C74.8908 178.383 74.8895 178.383 74.8877 178.383C74.8918 178.383 74.8961 178.383 74.9003 178.384Z" fill="#FD8502"/>
<path id="path180" d="M74.881 178.383C74.8803 178.383 74.8791 178.383 74.8785 178.383C74.8789 178.383 74.8786 178.383 74.8791 178.383C74.8797 178.383 74.8803 178.383 74.881 178.383ZM74.8719 178.383C74.8688 178.383 74.8656 178.383 74.8625 178.383C74.8638 178.383 74.8656 178.383 74.8669 178.383C74.8683 178.383 74.8704 178.383 74.8719 178.383Z" fill="#FFBCBC"/>
<path id="path182" d="M74.8792 178.383C74.8787 178.383 74.879 178.383 74.8786 178.383C74.8761 178.383 74.8742 178.383 74.8718 178.383C74.8703 178.383 74.8681 178.383 74.8667 178.383C74.8709 178.383 74.8749 178.383 74.8792 178.383Z" fill="#FD8502"/>
<path id="path184" d="M168.122 178.383C168.126 178.383 168.13 178.383 168.134 178.383C168.129 178.383 168.126 178.383 168.122 178.383Z" fill="#FDA602"/>
<path id="path186" d="M74.8582 178.383C74.8575 178.383 74.8576 178.383 74.8569 178.383H74.8577H74.8582ZM74.852 178.383C74.8491 178.383 74.8458 178.382 74.843 178.382C74.8439 178.382 74.8448 178.382 74.8456 178.382C74.8478 178.383 74.8498 178.383 74.852 178.383Z" fill="#FFBCBC"/>
<path id="path188" d="M74.8576 178.383H74.8568C74.8553 178.383 74.8534 178.383 74.8518 178.383C74.8496 178.383 74.8477 178.383 74.8455 178.382C74.8496 178.383 74.8534 178.383 74.8576 178.383Z" fill="#FD8502"/>
<path id="path192" d="M74.8383 178.382C74.8364 178.382 74.8349 178.382 74.833 178.382C74.8339 178.382 74.8354 178.382 74.8362 178.382C74.8371 178.382 74.8374 178.382 74.8383 178.382ZM74.8268 178.382C74.8224 178.382 74.8181 178.381 74.8136 178.381C74.8145 178.381 74.8149 178.381 74.8158 178.381C74.8185 178.381 74.8216 178.381 74.8244 178.382C74.8252 178.382 74.8259 178.382 74.8268 178.382ZM74.807 178.381C74.8048 178.381 74.803 178.381 74.8008 178.381C74.8016 178.381 74.8027 178.381 74.8035 178.381C74.8049 178.381 74.8057 178.381 74.807 178.381Z" fill="#FFBCBC"/>
<path id="path194" d="M74.8363 178.382C74.8355 178.382 74.834 178.382 74.8331 178.382C74.8312 178.382 74.8288 178.382 74.8269 178.382C74.826 178.382 74.8253 178.382 74.8245 178.382C74.8284 178.382 74.8324 178.382 74.8363 178.382ZM74.816 178.381C74.8151 178.381 74.8147 178.381 74.8138 178.381C74.8116 178.381 74.8095 178.381 74.8072 178.381C74.8059 178.381 74.8051 178.381 74.8037 178.381C74.8078 178.381 74.8118 178.381 74.816 178.381Z" fill="#FD8502"/>
<path id="path206" d="M74.7775 178.38C74.7746 178.38 74.7721 178.38 74.7693 178.38C74.771 178.38 74.7727 178.38 74.7745 178.38C74.7755 178.38 74.7765 178.38 74.7775 178.38ZM74.7621 178.38C74.7576 178.379 74.7535 178.379 74.7491 178.379C74.7509 178.379 74.7529 178.379 74.7546 178.379C74.7567 178.379 74.7588 178.38 74.7609 178.38C74.7613 178.38 74.7616 178.38 74.7621 178.38ZM74.743 178.379C74.7418 178.379 74.7405 178.379 74.7393 178.379C74.7396 178.379 74.7399 178.379 74.7404 178.379C74.7412 178.379 74.7422 178.379 74.743 178.379Z" fill="#FFBCBC"/>
<path id="path208" d="M74.7743 178.38C74.7725 178.38 74.7709 178.38 74.7691 178.38C74.7668 178.38 74.7642 178.38 74.762 178.38C74.7615 178.38 74.7612 178.38 74.7608 178.38C74.7653 178.38 74.7698 178.38 74.7743 178.38ZM74.7546 178.379C74.7528 178.379 74.7509 178.379 74.7491 178.379C74.7472 178.379 74.7449 178.379 74.7431 178.379C74.7422 178.379 74.7413 178.379 74.7405 178.379C74.7452 178.379 74.7498 178.379 74.7546 178.379Z" fill="#FD8502"/>
<path id="path222" d="M74.7142 178.377C74.7115 178.377 74.7088 178.377 74.7061 178.377C74.7042 178.377 74.7019 178.377 74.7 178.377C74.7046 178.377 74.7096 178.377 74.7142 178.377Z" fill="#FD8502"/>
<path id="path226" d="M74.697 178.376C74.6932 178.376 74.689 178.376 74.6852 178.376C74.6892 178.376 74.6926 178.376 74.6966 178.376C74.6968 178.376 74.6967 178.376 74.697 178.376ZM74.6737 178.376C74.6696 178.376 74.6655 178.376 74.6614 178.375C74.6653 178.376 74.6697 178.376 74.6737 178.376Z" fill="#FFBCBC"/>
<path id="path228" d="M74.6966 178.376C74.6926 178.376 74.6892 178.376 74.6852 178.376C74.6814 178.376 74.6775 178.376 74.6737 178.376C74.6697 178.376 74.6654 178.376 74.6614 178.375C74.6608 178.375 74.6598 178.375 74.6592 178.375C74.6716 178.376 74.6842 178.376 74.6966 178.376Z" fill="#FD8502"/>
<path id="path232" d="M74.6542 178.375C74.6506 178.375 74.6462 178.374 74.6426 178.374C74.6461 178.374 74.6507 178.375 74.6542 178.375Z" fill="#FFBCBC"/>
<path id="path234" d="M74.6564 178.375C74.6553 178.375 74.6546 178.375 74.6536 178.375C74.6503 178.375 74.646 178.374 74.6427 178.374C74.6418 178.374 74.6409 178.374 74.6399 178.374C74.6454 178.374 74.6509 178.375 74.6564 178.375Z" fill="#FD8502"/>
<path id="path236" d="M74.633 178.374C74.6276 178.373 74.6223 178.373 74.6169 178.373C74.6222 178.373 74.6277 178.373 74.633 178.374ZM74.6079 178.373C74.6048 178.373 74.6016 178.373 74.5984 178.372C74.6015 178.373 74.6048 178.373 74.6079 178.373Z" fill="#FFBCBC"/>
<path id="path238" d="M74.6356 178.374C74.635 178.374 74.6338 178.374 74.6332 178.374C74.6278 178.373 74.6223 178.373 74.6169 178.373C74.6138 178.373 74.611 178.373 74.6079 178.373C74.6048 178.373 74.6014 178.373 74.5983 178.372C74.598 178.372 74.598 178.372 74.5977 178.372C74.6103 178.373 74.6229 178.373 74.6356 178.374Z" fill="#FD8502"/>
<path id="path240" d="M74.5892 178.372C74.5855 178.372 74.5814 178.371 74.5776 178.371C74.5814 178.371 74.5854 178.372 74.5892 178.372Z" fill="#FFBCBC"/>
<path id="path242" d="M74.5961 178.372C74.5938 178.372 74.5914 178.372 74.589 178.372C74.5853 178.372 74.5814 178.371 74.5776 178.371C74.5839 178.371 74.5899 178.372 74.5961 178.372Z" fill="#FD8502"/>
<path id="path244" d="M168.424 178.371C168.43 178.371 168.436 178.37 168.442 178.37C168.435 178.37 168.43 178.371 168.424 178.371Z" fill="#FDA602"/>
<path id="path246" d="M74.567 178.37C74.5625 178.37 74.558 178.37 74.5535 178.37C74.5539 178.37 74.5555 178.37 74.5559 178.37C74.5568 178.37 74.5575 178.37 74.5583 178.37C74.5614 178.37 74.5638 178.37 74.567 178.37ZM74.5449 178.37C74.5414 178.37 74.5375 178.369 74.534 178.369C74.5344 178.369 74.535 178.369 74.5355 178.369C74.5363 178.369 74.5373 178.369 74.5381 178.369C74.5403 178.369 74.5426 178.37 74.5449 178.37ZM74.5257 178.368C74.5228 178.368 74.5195 178.368 74.5166 178.368C74.517 178.368 74.5175 178.368 74.5178 178.368C74.5206 178.368 74.5231 178.368 74.5257 178.368Z" fill="#FFBCBC"/>
<path id="path248" d="M74.5763 178.371C74.5733 178.371 74.5698 178.37 74.567 178.37C74.5638 178.37 74.5614 178.37 74.5583 178.37C74.5642 178.37 74.5704 178.371 74.5763 178.371ZM74.5559 178.37C74.5554 178.37 74.5539 178.37 74.5535 178.37C74.5506 178.37 74.5478 178.37 74.5449 178.37C74.5426 178.37 74.5403 178.369 74.538 178.369C74.5439 178.37 74.55 178.37 74.5559 178.37ZM74.5355 178.369C74.535 178.369 74.5344 178.369 74.534 178.369C74.531 178.369 74.5286 178.369 74.5257 178.368C74.523 178.368 74.5205 178.368 74.5178 178.368C74.5237 178.368 74.5296 178.369 74.5355 178.369Z" fill="#FD8502"/>
<path id="path252" d="M66.533 175.197C65.1009 173.99 63.9255 172.491 63.0989 170.794C63.0992 170.795 63.0997 170.795 63.1 170.795C63.4977 171.611 63.9763 172.381 64.525 173.095C64.2647 172.588 64.036 172.06 63.8414 171.517C64.8953 172.469 66.1009 173.257 67.4181 173.842L66.3351 174.805L66.2021 174.909C66.3107 175.007 66.421 175.103 66.5326 175.197C66.5327 175.197 66.5328 175.197 66.533 175.197Z" fill="#24224E"/>
<path id="path254" d="M64.5251 173.095C63.9764 172.381 63.4978 171.611 63.1001 170.795C63.3379 171.045 63.5852 171.286 63.8415 171.517C64.0361 172.06 64.2648 172.588 64.5251 173.095Z" fill="#24224E"/>
<path id="path256" d="M74.5157 178.368C74.5134 178.368 74.5108 178.367 74.5086 178.367C74.5108 178.367 74.5126 178.367 74.5148 178.368C74.515 178.368 74.5155 178.368 74.5157 178.368ZM74.5006 178.367C74.497 178.366 74.4932 178.366 74.4897 178.366C74.4915 178.366 74.4926 178.366 74.4944 178.366C74.4952 178.366 74.4965 178.366 74.4973 178.366C74.4982 178.366 74.4997 178.367 74.5006 178.367ZM74.4811 178.366C74.4775 178.366 74.4734 178.366 74.4698 178.365C74.4712 178.365 74.4729 178.366 74.4742 178.366C74.4751 178.366 74.4759 178.366 74.4767 178.366C74.4781 178.366 74.4798 178.366 74.4811 178.366ZM74.4574 178.364C74.4532 178.364 74.4495 178.364 74.4454 178.363C74.4485 178.364 74.4519 178.364 74.455 178.364C74.4552 178.364 74.4555 178.364 74.4557 178.364C74.4567 178.364 74.4566 178.364 74.4574 178.364ZM74.436 178.363C74.4328 178.363 74.4299 178.363 74.4267 178.363C74.4298 178.363 74.4329 178.363 74.436 178.363ZM74.4172 178.362C74.413 178.362 74.4082 178.361 74.404 178.361C74.4086 178.361 74.4127 178.362 74.4172 178.362ZM74.3919 178.36C74.3887 178.36 74.3852 178.36 74.382 178.36C74.3852 178.36 74.3888 178.36 74.3919 178.36ZM74.3528 178.358C74.3477 178.357 74.3429 178.357 74.3377 178.356C74.3426 178.357 74.3479 178.357 74.3528 178.358ZM74.3279 178.356C74.3247 178.356 74.322 178.356 74.3188 178.356C74.3215 178.356 74.3252 178.356 74.3279 178.356ZM74.309 178.355C74.3056 178.354 74.302 178.354 74.2985 178.354C74.3021 178.354 74.3055 178.354 74.309 178.355ZM74.2833 178.353C74.2804 178.353 74.2776 178.353 74.2747 178.352C74.2774 178.353 74.2807 178.353 74.2833 178.353ZM74.264 178.351C74.2615 178.351 74.2595 178.351 74.257 178.351C74.2592 178.351 74.2618 178.351 74.264 178.351ZM74.2348 178.35C74.2335 178.349 74.2317 178.349 74.2305 178.349C74.2318 178.349 74.2334 178.349 74.2348 178.35ZM74.2183 178.348C74.2167 178.348 74.2146 178.348 74.213 178.347C74.2148 178.348 74.2165 178.348 74.2183 178.348ZM74.2005 178.346C74.1993 178.346 74.1979 178.346 74.1966 178.346C74.1979 178.346 74.1992 178.346 74.2005 178.346ZM74.1729 178.344C74.1713 178.344 74.1695 178.344 74.168 178.344C74.1698 178.344 74.1711 178.344 74.1729 178.344ZM74.1555 178.343C74.154 178.343 74.1522 178.343 74.1505 178.343C74.1523 178.343 74.1537 178.343 74.1555 178.343ZM74.1103 178.339C74.1087 178.339 74.1072 178.339 74.1056 178.339C74.1069 178.339 74.1089 178.339 74.1103 178.339ZM74.0926 178.338C74.092 178.337 74.0913 178.337 74.0906 178.337C74.0915 178.337 74.0917 178.337 74.0926 178.338ZM74.0629 178.335C74.0623 178.335 74.0617 178.335 74.0611 178.335C74.0619 178.335 74.0621 178.335 74.0629 178.335ZM74.0479 178.333C74.0463 178.333 74.0452 178.333 74.0436 178.333C74.0449 178.333 74.0465 178.333 74.0479 178.333ZM74.0019 178.329C74.0009 178.329 74 178.329 73.999 178.329C73.9999 178.329 74.001 178.329 74.0019 178.329Z" fill="#FFBCBC"/>
<path id="path258" d="M74.5149 178.368C74.5126 178.367 74.5109 178.367 74.5087 178.367C74.5057 178.367 74.5035 178.367 74.5007 178.367C74.4997 178.367 74.4982 178.366 74.4974 178.366C74.5032 178.367 74.509 178.367 74.5149 178.368ZM74.4944 178.366C74.4926 178.366 74.4916 178.366 74.4898 178.366C74.4868 178.366 74.4841 178.366 74.4811 178.366C74.4798 178.366 74.4782 178.366 74.4768 178.366C74.4827 178.366 74.4885 178.366 74.4944 178.366ZM74.4743 178.366C74.473 178.366 74.4713 178.365 74.4699 178.365C74.4657 178.365 74.4617 178.365 74.4575 178.364C74.4567 178.364 74.4567 178.364 74.4558 178.364C74.4621 178.365 74.468 178.365 74.4743 178.366ZM74.455 178.364C74.4519 178.364 74.4486 178.364 74.4455 178.363C74.4425 178.363 74.439 178.363 74.4361 178.363C74.4329 178.363 74.4299 178.363 74.4267 178.363C74.4235 178.363 74.4204 178.362 74.4172 178.362C74.4127 178.362 74.4086 178.361 74.4041 178.361C74.3999 178.361 74.3962 178.36 74.392 178.36C74.3889 178.36 74.3852 178.36 74.3821 178.36C74.3788 178.36 74.3758 178.36 74.3726 178.359C74.369 178.359 74.3659 178.359 74.3623 178.358C74.3594 178.358 74.3558 178.358 74.3529 178.358C74.348 178.357 74.3427 178.357 74.3377 178.356C74.3345 178.356 74.3312 178.356 74.328 178.356C74.3253 178.356 74.3215 178.356 74.3189 178.356C74.3156 178.355 74.3124 178.355 74.3091 178.355C74.3055 178.354 74.3021 178.354 74.2985 178.354C74.2937 178.353 74.2882 178.353 74.2834 178.353C74.2807 178.353 74.2775 178.353 74.2748 178.352C74.2713 178.352 74.2676 178.352 74.2641 178.351C74.2618 178.351 74.2593 178.351 74.257 178.351C74.2496 178.35 74.2423 178.35 74.2349 178.35C74.2335 178.349 74.2318 178.349 74.2305 178.349C74.2263 178.349 74.2226 178.348 74.2184 178.348C74.2166 178.348 74.2148 178.348 74.213 178.347C74.2088 178.347 74.2048 178.347 74.2006 178.346C74.1993 178.346 74.198 178.346 74.1966 178.346C74.1886 178.346 74.1809 178.345 74.1729 178.344C74.1711 178.344 74.1698 178.344 74.168 178.344C74.1638 178.343 74.1598 178.343 74.1556 178.343C74.1538 178.343 74.1524 178.343 74.1506 178.343C74.1372 178.341 74.1238 178.34 74.1103 178.339C74.109 178.339 74.107 178.339 74.1057 178.339C74.1012 178.338 74.0971 178.338 74.0927 178.338C74.0918 178.337 74.0916 178.337 74.0907 178.337C74.0817 178.336 74.0719 178.336 74.063 178.335C74.0621 178.335 74.062 178.335 74.0611 178.335C74.0566 178.334 74.0524 178.334 74.0479 178.333C74.0466 178.333 74.045 178.333 74.0437 178.333C74.0299 178.332 74.0157 178.331 74.002 178.329C74.0011 178.329 74 178.329 73.9991 178.329C73.979 178.327 73.959 178.326 73.9389 178.323H73.9388C71.1285 178.047 68.571 176.916 66.533 175.197C66.5329 175.197 66.5328 175.197 66.5326 175.197C68.6949 177.021 71.4418 178.182 74.455 178.364ZM66.3352 174.805L67.4181 173.842C67.4495 173.856 67.4812 173.87 67.5128 173.884L66.3352 174.805Z" fill="#24224E"/>
<path id="path260" d="M168.486 178.368C168.491 178.367 168.498 178.367 168.503 178.366C168.497 178.367 168.492 178.367 168.486 178.368Z" fill="#FDA602"/>
<path id="path266" d="M181.244 110.194C181.244 110.186 181.244 110.179 181.244 110.171C181.244 110.178 181.244 110.186 181.244 110.194ZM181.243 110.071C181.243 110.065 181.243 110.059 181.243 110.054C181.243 110.059 181.243 110.065 181.243 110.071ZM181.243 109.994C181.243 109.99 181.243 109.984 181.243 109.981C181.243 109.985 181.243 109.99 181.243 109.994ZM181.238 109.781C181.238 109.776 181.237 109.771 181.237 109.766C181.237 109.771 181.238 109.776 181.238 109.781ZM181.236 109.737C181.236 109.729 181.236 109.72 181.236 109.714C181.236 109.721 181.236 109.728 181.236 109.737ZM181.233 109.66C181.233 109.656 181.233 109.65 181.233 109.645C181.233 109.65 181.233 109.655 181.233 109.66ZM181.222 109.426C181.222 109.41 181.221 109.396 181.219 109.38C181.221 109.395 181.222 109.411 181.222 109.426ZM181.218 109.352C181.218 109.346 181.217 109.34 181.217 109.335C181.217 109.341 181.218 109.346 181.218 109.352ZM181.214 109.284C181.212 109.268 181.212 109.252 181.21 109.236C181.212 109.252 181.212 109.267 181.214 109.284ZM181.21 109.236C181.21 109.228 181.209 109.221 181.208 109.213C181.209 109.221 181.21 109.229 181.21 109.236ZM181.191 109C180.916 105.901 179.583 103.106 177.552 100.971C177.552 100.97 177.552 100.97 177.552 100.97C179.582 103.105 180.916 105.901 181.191 109Z" fill="#FFEBEB"/>
<path id="path268" d="M168.546 178.364C171.715 178.173 174.588 176.898 176.798 174.909L176.665 174.805L173.692 172.161C176.859 169.701 178.894 165.872 178.894 161.57V106.812C178.894 104.719 178.412 102.737 177.552 100.971C179.583 103.106 180.916 105.901 181.191 109C181.191 109 181.191 109 181.191 109.001C181.192 109.008 181.193 109.015 181.194 109.023V109.024C181.194 109.031 181.194 109.039 181.195 109.046C181.195 109.047 181.195 109.047 181.195 109.048C181.198 109.079 181.201 109.11 181.203 109.141C181.203 109.142 181.203 109.142 181.203 109.143C181.204 109.15 181.205 109.157 181.205 109.164C181.205 109.165 181.205 109.166 181.205 109.168C181.205 109.174 181.206 109.18 181.207 109.187C181.207 109.188 181.207 109.189 181.207 109.19C181.208 109.197 181.208 109.204 181.208 109.211C181.208 109.212 181.208 109.213 181.208 109.213C181.209 109.221 181.21 109.228 181.21 109.236C181.21 109.236 181.21 109.236 181.21 109.236C181.212 109.252 181.212 109.268 181.214 109.284C181.214 109.284 181.214 109.284 181.214 109.285C181.214 109.292 181.215 109.299 181.215 109.306C181.215 109.308 181.215 109.309 181.215 109.311C181.215 109.317 181.216 109.322 181.216 109.328C181.216 109.331 181.217 109.332 181.217 109.335C181.217 109.34 181.218 109.346 181.218 109.352C181.218 109.354 181.218 109.355 181.219 109.357C181.219 109.363 181.219 109.37 181.219 109.376C181.219 109.378 181.219 109.379 181.219 109.38C181.221 109.396 181.222 109.41 181.222 109.426C181.222 109.427 181.222 109.427 181.222 109.428C181.223 109.435 181.223 109.442 181.224 109.449C181.224 109.45 181.224 109.453 181.224 109.454C181.224 109.46 181.225 109.466 181.225 109.471C181.225 109.473 181.225 109.476 181.226 109.478C181.226 109.483 181.226 109.489 181.226 109.494C181.226 109.497 181.226 109.499 181.226 109.5C181.226 109.507 181.227 109.512 181.227 109.517C181.227 109.52 181.227 109.521 181.228 109.524C181.228 109.531 181.228 109.537 181.229 109.544C181.229 109.544 181.229 109.545 181.229 109.546C181.229 109.561 181.23 109.577 181.231 109.592C181.231 109.594 181.231 109.595 181.231 109.598C181.231 109.603 181.232 109.609 181.232 109.615C181.232 109.617 181.232 109.619 181.232 109.622C181.233 109.627 181.233 109.632 181.233 109.637C181.233 109.64 181.233 109.642 181.233 109.645C181.233 109.65 181.233 109.656 181.233 109.66C181.233 109.663 181.234 109.666 181.234 109.668C181.234 109.673 181.234 109.679 181.235 109.684C181.235 109.686 181.235 109.688 181.235 109.69C181.235 109.697 181.235 109.703 181.236 109.71C181.236 109.711 181.236 109.713 181.236 109.714C181.236 109.72 181.236 109.729 181.236 109.737C181.236 109.737 181.236 109.738 181.236 109.739C181.236 109.746 181.237 109.752 181.237 109.759C181.237 109.761 181.237 109.764 181.237 109.766C181.237 109.771 181.238 109.776 181.238 109.781C181.238 109.784 181.238 109.787 181.238 109.789C181.238 109.795 181.238 109.799 181.239 109.804C181.239 109.807 181.239 109.81 181.239 109.812C181.239 109.818 181.239 109.822 181.239 109.828C181.24 109.83 181.24 109.832 181.24 109.835C181.24 109.841 181.24 109.846 181.24 109.852C181.24 109.854 181.24 109.856 181.24 109.858C181.24 109.873 181.24 109.888 181.241 109.903C181.241 109.906 181.241 109.908 181.241 109.91C181.241 109.915 181.241 109.92 181.241 109.926C181.241 109.929 181.242 109.931 181.242 109.933C181.242 109.939 181.242 109.944 181.242 109.949C181.242 109.951 181.242 109.954 181.242 109.957C181.242 109.962 181.242 109.967 181.242 109.971C181.243 109.974 181.243 109.977 181.243 109.981C181.243 109.984 181.243 109.99 181.243 109.994C181.243 109.997 181.243 110 181.243 110.003C181.243 110.009 181.243 110.015 181.243 110.021C181.243 110.022 181.243 110.024 181.243 110.025C181.243 110.033 181.243 110.041 181.243 110.048C181.243 110.05 181.243 110.052 181.243 110.054C181.243 110.059 181.243 110.065 181.243 110.071C181.243 110.073 181.243 110.076 181.243 110.079C181.243 110.084 181.243 110.089 181.243 110.093C181.243 110.096 181.243 110.099 181.243 110.103C181.243 110.107 181.243 110.112 181.244 110.116C181.244 110.119 181.244 110.123 181.244 110.126C181.244 110.13 181.244 110.134 181.244 110.139C181.244 110.142 181.244 110.145 181.244 110.148C181.244 110.153 181.244 110.158 181.244 110.163C181.244 110.165 181.244 110.168 181.244 110.171C181.244 110.179 181.244 110.186 181.244 110.194V164.952C181.244 172.094 175.631 177.936 168.546 178.364Z" fill="#24224E"/>
<path id="path270" d="M176.665 174.805L173.486 172.317C173.556 172.266 173.624 172.213 173.692 172.161L176.665 174.805Z" fill="#24224E"/>
<path id="path272" d="M167.71 178.39H75.2895C75.2833 178.39 75.2773 178.39 75.2711 178.39C75.2692 178.39 75.2671 178.39 75.2652 178.39C75.264 178.39 75.2623 178.39 75.2611 178.39C75.2581 178.39 75.2551 178.39 75.2521 178.39C75.2501 178.39 75.248 178.39 75.246 178.39C75.2434 178.39 75.2409 178.39 75.2383 178.39C75.2356 178.39 75.2325 178.39 75.2298 178.39C75.2291 178.39 75.2284 178.39 75.2277 178.39C75.2273 178.39 75.2263 178.39 75.226 178.39C75.2229 178.389 75.22 178.389 75.2171 178.389C75.2145 178.389 75.212 178.389 75.2095 178.389C75.2072 178.389 75.2053 178.389 75.2031 178.389C75.2005 178.389 75.1978 178.389 75.1952 178.389C75.1936 178.389 75.192 178.389 75.1903 178.389C75.1883 178.389 75.1862 178.389 75.1842 178.389C75.1841 178.389 75.1837 178.389 75.1834 178.389C75.1805 178.389 75.1771 178.389 75.1741 178.389C75.1726 178.389 75.1716 178.389 75.1701 178.389C75.1688 178.389 75.1669 178.389 75.1656 178.389C75.1645 178.389 75.1634 178.389 75.1623 178.389C75.1591 178.389 75.1557 178.389 75.1525 178.389C75.1505 178.389 75.149 178.389 75.147 178.389C75.1457 178.389 75.1446 178.389 75.1432 178.389C75.1426 178.389 75.1418 178.389 75.1411 178.389C75.138 178.389 75.1347 178.389 75.1315 178.389C75.1304 178.389 75.1296 178.389 75.1285 178.388C75.1266 178.388 75.1243 178.388 75.1223 178.388C75.1215 178.388 75.1209 178.388 75.1201 178.388C75.1167 178.388 75.1132 178.388 75.1098 178.388C75.1093 178.388 75.109 178.388 75.1085 178.388C75.1072 178.388 75.1053 178.388 75.104 178.388C75.1023 178.388 75.1007 178.388 75.099 178.388C75.0956 178.388 75.0922 178.388 75.0888 178.388C75.0876 178.388 75.0864 178.388 75.0851 178.388C75.0845 178.388 75.0847 178.388 75.084 178.388C75.0819 178.388 75.0802 178.388 75.0781 178.388C75.0744 178.388 75.0709 178.387 75.0673 178.387C75.0669 178.387 75.0665 178.387 75.066 178.387C75.0648 178.387 75.0631 178.387 75.0618 178.387C75.0601 178.387 75.0587 178.387 75.057 178.387C75.0535 178.387 75.0503 178.387 75.0469 178.387C75.0453 178.387 75.044 178.387 75.0424 178.387C75.0405 178.387 75.0381 178.387 75.0363 178.387C75.0325 178.387 75.0287 178.387 75.0248 178.387C75.0217 178.387 75.0186 178.387 75.0154 178.387C75.0119 178.387 75.0082 178.387 75.0046 178.387C75.0033 178.387 75.0015 178.387 75.0003 178.387C74.9981 178.387 74.9959 178.387 74.9938 178.387C74.991 178.387 74.9883 178.386 74.9855 178.386C74.9839 178.386 74.9823 178.386 74.9808 178.386C74.9782 178.386 74.9758 178.386 74.9732 178.386C74.9707 178.386 74.9685 178.386 74.9659 178.386C74.9643 178.386 74.963 178.386 74.9614 178.386C74.9568 178.386 74.9519 178.385 74.9473 178.385C74.9458 178.385 74.9444 178.385 74.9429 178.385C74.942 178.385 74.9407 178.385 74.9397 178.385C74.9359 178.385 74.9319 178.385 74.9281 178.385C74.9268 178.385 74.9253 178.384 74.9241 178.384C74.9225 178.384 74.9211 178.384 74.9194 178.384C74.9159 178.384 74.9117 178.384 74.9082 178.384C74.9067 178.384 74.9056 178.384 74.9041 178.384C74.9028 178.384 74.9015 178.384 74.9002 178.384C74.9 178.384 74.9 178.384 74.8999 178.384C74.8958 178.383 74.8917 178.383 74.8877 178.383C74.8856 178.383 74.8833 178.383 74.8812 178.383C74.8809 178.383 74.8808 178.383 74.8804 178.383C74.8798 178.383 74.8792 178.383 74.8785 178.383C74.8745 178.383 74.8707 178.383 74.8667 178.383C74.8654 178.383 74.8637 178.383 74.8625 178.383C74.8611 178.383 74.8597 178.383 74.8584 178.383H74.858C74.8537 178.383 74.8498 178.383 74.8455 178.382C74.8447 178.382 74.8437 178.382 74.8429 178.382C74.8415 178.382 74.8402 178.382 74.8389 178.382C74.8381 178.382 74.8377 178.382 74.8368 178.382C74.8328 178.382 74.8287 178.382 74.8248 178.382C74.822 178.381 74.8188 178.381 74.8161 178.381C74.8118 178.381 74.8077 178.381 74.8035 178.381C74.8027 178.381 74.8016 178.381 74.8007 178.381C74.7998 178.38 74.7989 178.38 74.7979 178.38C74.7971 178.38 74.7962 178.38 74.7954 178.38C74.7912 178.38 74.7866 178.38 74.7824 178.38C74.7819 178.38 74.7816 178.38 74.7812 178.38C74.7802 178.38 74.779 178.38 74.7781 178.38C74.777 178.38 74.7761 178.38 74.7751 178.38C74.7704 178.38 74.7658 178.38 74.7612 178.38C74.7591 178.38 74.7569 178.379 74.7548 178.379C74.7499 178.379 74.7452 178.379 74.7403 178.379C74.7399 178.379 74.7396 178.379 74.7392 178.379C74.7388 178.379 74.7383 178.379 74.738 178.378C74.7368 178.378 74.7357 178.378 74.7344 178.378C74.7298 178.378 74.725 178.378 74.7204 178.378C74.7191 178.377 74.7178 178.377 74.7165 178.377C74.7156 178.377 74.7152 178.377 74.7144 178.377C74.7097 178.377 74.7047 178.377 74.7 178.377C74.6991 178.377 74.6986 178.377 74.6977 178.377C74.6974 178.377 74.6975 178.377 74.6973 178.377C74.6846 178.377 74.6719 178.376 74.6592 178.375C74.6579 178.375 74.6569 178.375 74.6557 178.375C74.6504 178.375 74.6451 178.374 74.6398 178.374C74.6385 178.374 74.6377 178.374 74.6363 178.374C74.6234 178.373 74.6105 178.373 74.5977 178.372C74.597 178.372 74.5964 178.372 74.5957 178.372C74.5896 178.372 74.5838 178.371 74.5776 178.371C74.577 178.371 74.5768 178.371 74.5762 178.371C74.5703 178.371 74.5641 178.37 74.5582 178.37C74.5573 178.37 74.5567 178.37 74.5558 178.37C74.5499 178.37 74.5438 178.37 74.5379 178.369C74.5371 178.369 74.5361 178.369 74.5354 178.369C74.5294 178.369 74.5236 178.368 74.5177 178.368C74.5173 178.368 74.5169 178.368 74.5165 178.368C74.5162 178.368 74.5161 178.368 74.5158 178.368C74.5155 178.368 74.515 178.368 74.5148 178.368C74.5089 178.367 74.5032 178.367 74.4973 178.366C74.4965 178.366 74.4952 178.366 74.4944 178.366C74.4885 178.366 74.4826 178.366 74.4767 178.366C74.4759 178.366 74.4751 178.366 74.4743 178.366C74.468 178.365 74.462 178.365 74.4558 178.364C74.4555 178.364 74.4552 178.364 74.455 178.364C71.4417 178.182 68.6949 177.021 66.5326 175.197C66.421 175.103 66.3107 175.007 66.2021 174.909L66.3352 174.805L67.5128 173.884C69.1741 174.607 71.0096 175.008 72.9398 175.008H165.361C168.41 175.008 171.223 174.007 173.486 172.317L176.665 174.805L176.798 174.909C174.588 176.898 171.715 178.173 168.546 178.364C168.545 178.364 168.545 178.364 168.544 178.364C168.538 178.365 168.532 178.365 168.527 178.366C168.525 178.366 168.524 178.366 168.523 178.366C168.517 178.366 168.512 178.366 168.506 178.366C168.505 178.366 168.503 178.366 168.503 178.366C168.497 178.367 168.491 178.367 168.485 178.368C168.484 178.368 168.483 178.368 168.482 178.368C168.476 178.368 168.471 178.369 168.465 178.369C168.464 178.369 168.463 178.369 168.461 178.369C168.456 178.37 168.45 178.37 168.444 178.37C168.443 178.37 168.443 178.37 168.441 178.37C168.436 178.37 168.43 178.371 168.424 178.371C168.423 178.371 168.422 178.371 168.422 178.371C168.382 178.373 168.343 178.375 168.304 178.377C168.303 178.377 168.302 178.377 168.301 178.377C168.297 178.377 168.291 178.377 168.286 178.377C168.284 178.377 168.283 178.377 168.28 178.378C168.276 178.378 168.271 178.378 168.266 178.378C168.264 178.378 168.262 178.379 168.259 178.379C168.255 178.379 168.25 178.379 168.245 178.379C168.244 178.379 168.241 178.38 168.239 178.38C168.234 178.38 168.23 178.38 168.225 178.38C168.223 178.38 168.22 178.38 168.217 178.38C168.213 178.38 168.209 178.38 168.205 178.38C168.202 178.38 168.199 178.381 168.196 178.381C168.192 178.381 168.189 178.381 168.184 178.381C168.181 178.381 168.178 178.381 168.175 178.382C168.171 178.382 168.168 178.382 168.164 178.382C168.161 178.382 168.157 178.382 168.154 178.382C168.15 178.383 168.147 178.383 168.142 178.383C168.139 178.383 168.136 178.383 168.133 178.383C168.129 178.383 168.126 178.383 168.122 178.383C168.119 178.383 168.115 178.383 168.112 178.383C168.108 178.383 168.104 178.383 168.101 178.384C168.097 178.384 168.094 178.384 168.091 178.384C168.087 178.384 168.084 178.384 168.08 178.384C168.077 178.384 168.074 178.385 168.072 178.385C168.067 178.385 168.063 178.385 168.058 178.385C168.056 178.385 168.054 178.385 168.052 178.385C168.047 178.385 168.042 178.386 168.038 178.386C168.032 178.386 168.028 178.386 168.022 178.386C168.017 178.386 168.012 178.386 168.007 178.387C168.003 178.387 168 178.387 167.996 178.387C167.992 178.387 167.989 178.387 167.985 178.387C167.982 178.387 167.979 178.387 167.975 178.387C167.972 178.387 167.968 178.387 167.964 178.387C167.96 178.387 167.957 178.387 167.954 178.387C167.95 178.387 167.947 178.387 167.943 178.387C167.94 178.387 167.936 178.387 167.933 178.387C167.929 178.387 167.926 178.388 167.922 178.388C167.919 178.388 167.915 178.388 167.911 178.388C167.908 178.388 167.905 178.388 167.901 178.388C167.898 178.388 167.893 178.388 167.89 178.388C167.887 178.388 167.883 178.388 167.88 178.388C167.876 178.388 167.872 178.388 167.868 178.389C167.865 178.389 167.862 178.389 167.859 178.389C167.855 178.389 167.852 178.389 167.847 178.389C167.844 178.389 167.841 178.389 167.838 178.389C167.833 178.389 167.83 178.389 167.826 178.389C167.823 178.389 167.819 178.389 167.817 178.389C167.812 178.389 167.809 178.389 167.805 178.389C167.801 178.389 167.798 178.389 167.795 178.389C167.791 178.389 167.787 178.389 167.783 178.389C167.78 178.389 167.777 178.389 167.774 178.39C167.77 178.39 167.766 178.39 167.762 178.39C167.759 178.39 167.756 178.39 167.753 178.39C167.749 178.39 167.744 178.39 167.739 178.39C167.737 178.39 167.734 178.39 167.731 178.39C167.725 178.39 167.717 178.39 167.71 178.39Z" fill="#24224E"/>
<path id="path274" d="M144.757 101.554C144.757 114.308 134.344 124.647 121.5 124.647C108.656 124.647 98.2434 114.308 98.2434 101.554C98.2434 88.8 108.656 78.461 121.5 78.461C134.344 78.461 144.757 88.8 144.757 101.554Z" fill="#7DC41F"/>
<path id="path276" d="M141.296 89.4345C142.443 92.1661 143.078 95.1624 143.078 98.3062C143.078 111.06 132.665 121.399 119.821 121.399C111.454 121.399 104.122 117.01 100.024 110.426C103.527 118.776 111.822 124.647 121.5 124.647C134.344 124.647 144.757 114.308 144.757 101.554C144.757 97.1083 143.489 92.9572 141.296 89.4345Z" fill="#72B31C"/>
<path id="path278" d="M115.981 114.528C116.394 115.54 117.476 116.223 118.646 116.223C118.691 116.223 118.737 116.222 118.782 116.22C119.935 116.167 120.84 115.479 121.146 114.425C123.567 106.046 127.297 98.0299 132.229 90.6015C132.733 89.8428 132.768 88.9798 132.325 88.2335C131.854 87.4377 130.904 86.9082 129.904 86.8858C128.942 86.8603 128.113 87.2941 127.601 88.0652C123.821 93.7584 120.698 99.8198 118.294 106.123L115.671 99.6925C115.06 98.1943 113.339 97.7675 112.026 98.2198C110.657 98.6921 110.033 99.9433 110.543 101.196L115.981 114.528Z" fill="white"/>
<path id="path280" d="M95.4885 29.4363L96.8154 59.1768L82.2937 31.7627L95.4885 29.4363Z" fill="#7DC41F"/>
<path id="path282" d="M159.154 25.9367L144.633 53.3516L145.96 23.6104L159.154 25.9367Z" fill="#7DC41F"/>
<path id="path284" d="M196.981 59.799L173.975 71.2062L190.114 53.8556L196.981 59.799Z" fill="#7DC41F"/>
<path id="path286" d="M52.8866 52.5767L69.0252 69.9273L46.0193 58.52L52.8866 52.5767Z" fill="#7DC41F"/>
</g>
</g>
</g>
</svg>
