<svg width="16" height="16" viewBox="0 0 16 16" fill="none" xmlns="http://www.w3.org/2000/svg">
<g id="Iconly/Bold/Download">
<g id="Download">
<path id="Download_2" d="M8.51323 11.1397L8.51323 13.8124C8.51323 14.0966 8.28656 14.3334 7.99989 14.3334C7.74323 14.3334 7.52577 14.1344 7.49131 13.8823L7.48656 13.8124L7.48656 11.1397L4.29996 11.1395C2.71329 11.1395 1.40973 9.84019 1.33653 8.21977L1.33329 8.07598L1.33329 4.71645C1.33329 3.08467 2.59152 1.74524 4.15461 1.67004L4.29329 1.66671L11.7066 1.66671C13.2933 1.66671 14.5906 2.95952 14.6634 4.58587L14.6666 4.73022L14.6666 8.08287C14.6666 9.71464 13.4147 11.0606 11.852 11.1361L11.7133 11.1395L8.51329 11.1395L8.51329 6.87123L9.57996 7.97272C9.77996 8.17925 10.1066 8.17925 10.3066 7.97272C10.4066 7.86945 10.4533 7.73177 10.4533 7.59408C10.4533 7.48944 10.4234 7.38039 10.3603 7.28809L10.3066 7.22233L8.36663 5.21212C8.27329 5.10885 8.13996 5.05378 7.99996 5.05378C7.88885 5.05378 7.77774 5.09202 7.68977 5.16453L7.63996 5.21212L5.69996 7.22233C5.49996 7.42886 5.49996 7.76619 5.69996 7.97272C5.88178 8.16047 6.16828 8.17754 6.36913 8.02392L6.42663 7.97272L7.48663 6.87123L7.48663 11.1395L8.51323 11.1397Z" fill="#A2A0B3"/>
</g>
</g>
</svg>
