<svg width="24" height="24" viewBox="0 0 24 24" fill="none" xmlns="http://www.w3.org/2000/svg">
<path id="Home" d="M8.56183 22.528V18.8587C8.56183 17.9221 9.3267 17.1628 10.2702 17.1628H13.7192C14.1723 17.1628 14.6069 17.3414 14.9272 17.6595C15.2476 17.9776 15.4276 18.4089 15.4276 18.8587V22.528C15.4248 22.9174 15.5786 23.2919 15.8549 23.5682C16.1313 23.8446 16.5074 24 16.8996 24H19.2527C20.3517 24.0028 21.4066 23.5714 22.1847 22.801C22.9628 22.0305 23.4001 20.9844 23.4001 19.8934V9.44023C23.4001 8.55895 23.0066 7.72301 22.3256 7.1576L14.3209 0.811043C12.9285 -0.301726 10.9334 -0.265797 9.58257 0.896375L1.76051 7.1576C1.04739 7.70634 0.62116 8.54476 0.600098 9.44023V19.8827C0.600098 22.1566 2.45696 24 4.74751 24H7.04685C7.86157 24 8.52369 23.3475 8.5296 22.5387L8.56183 22.528Z" fill="#A2A0B3"/>
</svg>
