<svg width="70" height="22" viewBox="0 0 70 22" fill="none" xmlns="http://www.w3.org/2000/svg">
<path id="Vector" fill-rule="evenodd" clip-rule="evenodd" d="M70 11L69.9995 12.1L69.9989 12.5556L69.9973 12.9051L69.9957 13.1997L69.993 13.4592L69.9902 13.6936L69.9864 13.9091L69.9821 14.1096L69.9778 14.2977L69.9723 14.4756L69.9664 14.6446L69.9598 14.8059L69.9528 14.9605L69.9457 15.1091L69.9376 15.2523L69.9289 15.3906L69.9197 15.5245L69.9099 15.6543L69.8996 15.7804L69.8888 15.903L69.8774 16.0223L69.8654 16.1387L69.853 16.2522L69.8394 16.363L69.8258 16.4713L69.8117 16.5773L69.7971 16.6811L69.7813 16.7826L69.7656 16.8822L69.7493 16.9798L69.7319 17.0755L69.7146 17.1695L69.6961 17.2618L69.6771 17.3523L69.6581 17.4413L69.6381 17.5288L69.6174 17.6148L69.5963 17.6993L69.5746 17.7825L69.5523 17.8644L69.5295 17.9449L69.5062 18.0242L69.4823 18.1022L69.4579 18.179L69.4324 18.2547L69.4069 18.3292L69.3803 18.4027L69.3537 18.475L69.326 18.5462L69.2978 18.6165L69.2691 18.6856L69.2398 18.7538L69.2099 18.8211L69.1795 18.8874L69.1481 18.9527L69.1166 19.0171L69.084 19.0805L69.0509 19.1431L69.0173 19.2048L68.9831 19.2657L68.9484 19.3257L68.9131 19.3848L68.8767 19.4432L68.8404 19.5006L68.8029 19.5573L68.765 19.6132L68.7264 19.6683L68.6868 19.7226L68.6472 19.7762L68.6065 19.8289L68.5653 19.881L68.5235 19.9323L68.4806 19.9828L68.4372 20.0326L68.3938 20.0818L68.3488 20.1302L68.3037 20.1778L68.2576 20.2248L68.2109 20.2711L68.1637 20.3167L68.1154 20.3616L68.0666 20.4058L68.0172 20.4493L67.9667 20.4922L67.9157 20.5344L67.8642 20.5759L67.8116 20.6169L67.7584 20.6571L67.7047 20.6967L67.6498 20.7357L67.594 20.7739L67.5375 20.8116L67.4805 20.8486L67.4225 20.8851L67.3639 20.9208L67.3042 20.956L67.2434 20.9905L67.1821 21.0245L67.1197 21.0578L67.0567 21.0905L66.9927 21.1226L66.9276 21.154L66.8619 21.185L66.7952 21.2152L66.7274 21.2449L66.6585 21.274L66.5884 21.3025L66.5179 21.3304L66.4457 21.3577L66.373 21.3844L66.2987 21.4106L66.2238 21.4361L66.1473 21.4611L66.0697 21.4855L65.991 21.5092L65.9112 21.5325L65.8298 21.5552L65.7474 21.5772L65.6638 21.5987L65.5781 21.6196L65.4918 21.64L65.4033 21.6598L65.3138 21.679L65.2221 21.6977L65.1293 21.7158L65.0343 21.7332L64.9378 21.7502L64.8395 21.7666L64.7392 21.7824L64.6366 21.7977L64.5324 21.8124L64.4255 21.8266L64.3159 21.8402L64.2041 21.8532L64.0902 21.8656L63.9729 21.8776L63.8525 21.889L63.7288 21.8997L63.6018 21.91L63.471 21.9197L63.3364 21.9288L63.197 21.9374L63.0526 21.9454L62.9029 21.9529L62.7477 21.9599L62.5849 21.9662L62.415 21.9721L62.2365 21.9773L62.0471 21.9821L61.8458 21.9862L61.6293 21.9898L61.3943 21.9929L61.135 21.9954L60.8403 21.9974L60.493 21.9988L60.0453 21.9997L53.7478 22L52.3686 21.9998L51.895 21.999L51.5361 21.9976L51.2351 21.9958L50.9707 21.9933L50.7322 21.9904L50.5131 21.9869L50.3096 21.9827L50.1187 21.9781L49.9383 21.9729L49.767 21.9672L49.6035 21.9609L49.4469 21.9541L49.2963 21.9466L49.1513 21.9387L49.0112 21.9302L48.8757 21.9212L48.7443 21.9116L48.6167 21.9014L48.4926 21.8907L48.3718 21.8794L48.2541 21.8676L48.1393 21.8552L48.0271 21.8423L47.9175 21.8288L47.8103 21.8147L47.7054 21.8001L47.6026 21.7849L47.5019 21.7692L47.4032 21.7529L47.3064 21.736L47.2113 21.7186L47.118 21.7006L47.0264 21.682L46.9364 21.6629L46.848 21.6432L46.761 21.6229L46.6755 21.6021L46.5914 21.5807L46.5086 21.5587L46.4272 21.5361L46.3471 21.513L46.2682 21.4893L46.1904 21.465L46.1139 21.4401L46.0386 21.4146L45.9643 21.3886L45.8912 21.362L45.8192 21.3348L45.7481 21.307L45.6782 21.2786L45.6092 21.2496L45.5413 21.22L45.4743 21.1898L45.4082 21.159L45.3431 21.1276L45.2789 21.0956L45.2157 21.063L45.1533 21.0298L45.0918 20.996L45.0311 20.9615L44.9713 20.9265L44.9124 20.8908L44.8543 20.8545L44.797 20.8176L44.7404 20.78L44.6847 20.7418L44.6298 20.7029L44.5757 20.6634L44.5223 20.6233L44.4697 20.5825L44.4178 20.5411L44.3667 20.4989L44.3164 20.4562L44.2667 20.4128L44.2178 20.3686L44.1696 20.3239L44.1221 20.2784L44.0753 20.2322L44.0292 20.1853L43.9838 20.1378L43.9391 20.0895L43.8951 20.0405L43.8517 19.9908L43.809 19.9404L43.767 19.8892L43.7257 19.8373L43.685 19.7846L43.6449 19.7312L43.6056 19.677L43.5668 19.622L43.5287 19.5663L43.4913 19.5097L43.4544 19.4523L43.4182 19.3942L43.3827 19.3351L43.3477 19.2753L43.3135 19.2146L43.2798 19.153L43.2467 19.0906L43.2142 19.0273L43.1824 18.963L43.1511 18.8978L43.1205 18.8317L43.0905 18.7646L43.0611 18.6966L43.0323 18.6276L43.004 18.5575L42.9764 18.4864L42.9494 18.4142L42.9229 18.341L42.8971 18.2667L42.8718 18.1912L42.8472 18.1145L42.8231 18.0367L42.7996 17.9576L42.7766 17.8773L42.7543 17.7956L42.7326 17.7127L42.7113 17.6284L42.6908 17.5426L42.6707 17.4554L42.6513 17.3666L42.6324 17.2763L42.6141 17.1843L42.5964 17.0906L42.5792 16.9952L42.5625 16.8979L42.5465 16.7987L42.5311 16.6974L42.5162 16.594L42.5018 16.4884L42.488 16.3804L42.4749 16.27L42.4622 16.1569L42.4502 16.041L42.4386 15.9222L42.4277 15.8001L42.4173 15.6746L42.4075 15.5454L42.3982 15.4122L42.3895 15.2747L42.3813 15.1323L42.3737 14.9846L42.3667 14.831L42.3602 14.6708L42.3542 14.5031L42.3489 14.3267L42.3441 14.1403L42.3398 13.942L42.3361 13.7291L42.333 13.498L42.3304 13.2431L42.3284 12.955L42.3269 12.6163L42.326 12.1843L42.3256 11.439L42.3258 9.99141L42.3265 9.50763L42.3278 9.14611L42.3297 8.8445L42.3321 8.58028L42.335 8.34229L42.3386 8.12411L42.3427 7.92143L42.3473 7.73146L42.3525 7.55211L42.3583 7.38177L42.3645 7.21925L42.3714 7.06365L42.3788 6.91416L42.3868 6.77017L42.3953 6.63108L42.4044 6.49655L42.4141 6.36609L42.4243 6.23947L42.4351 6.11633L42.4464 5.99649L42.4583 5.87966L42.4708 5.76571L42.4838 5.65444L42.4974 5.54571L42.5115 5.43937L42.5262 5.3353L42.5416 5.23338L42.5574 5.13351L42.5738 5.03561L42.5908 4.93958L42.6084 4.84535L42.6265 4.75284L42.6452 4.66199L42.6645 4.57274L42.6843 4.48502L42.7047 4.3988L42.7257 4.31401L42.7473 4.23061L42.7695 4.14856L42.7922 4.06782L42.8155 3.98835L42.8394 3.91013L42.8639 3.8331L42.889 3.75725L42.9146 3.68254L42.9409 3.60896L42.9677 3.53646L42.9951 3.46503L43.0232 3.39464L43.0518 3.32528L43.081 3.25691L43.1109 3.18953L43.1413 3.12311L43.1724 3.05765L43.204 2.99311L43.2363 2.92948L43.2692 2.86674L43.3027 2.8049L43.3368 2.74392L43.3715 2.6838L43.4068 2.62453L43.4428 2.56609L43.4794 2.50846L43.5167 2.45165L43.5546 2.39564L43.5931 2.34042L43.6323 2.28598L43.6721 2.2323L43.7126 2.17939L43.7538 2.12724L43.7956 2.07583L43.838 2.02516L43.8812 1.97522L43.925 1.926L43.9695 1.8775L44.0146 1.82971L44.0606 1.78263L44.1071 1.73624L44.1544 1.69055L44.2023 1.64553L44.2511 1.6012L44.3004 1.55756L44.3506 1.51457L44.4015 1.47226L44.4531 1.4306L44.5055 1.3896L44.5586 1.34926L44.6125 1.30957L44.6672 1.27051L44.7226 1.2321L44.7788 1.19432L44.8359 1.15719L44.8938 1.12067L44.9525 1.08479L45.012 1.04953L45.0723 1.01489L45.1336 0.98087L45.1957 0.947458L45.2587 0.914661L45.3226 0.882475L45.3874 0.850894L45.4531 0.819912L45.5199 0.789536L45.5875 0.759759L45.6561 0.730582L45.7258 0.701993L45.7964 0.674003L45.8682 0.646596L45.9409 0.619784L46.0148 0.59356L46.0898 0.567919L46.1659 0.542857L46.2433 0.51838L46.3218 0.494482L46.4015 0.471164L46.4826 0.448421L46.5649 0.426254L46.6485 0.404661L46.7336 0.383641L46.8201 0.363192L46.9081 0.343313L46.9976 0.324003L47.0887 0.30526L47.1814 0.287085L47.2759 0.269474L47.3722 0.252429L47.4703 0.235946L47.5703 0.220026L47.6724 0.204669L47.7766 0.189872L47.8831 0.175634L47.9919 0.161957L48.1032 0.148837L48.2172 0.136276L48.334 0.124271L48.4538 0.112823L48.5768 0.10193L48.7032 0.0915931L48.8334 0.0818108L48.9676 0.072583L49.1062 0.0639084L49.2496 0.055787L49.3983 0.0482186L49.5529 0.0412026L49.7141 0.0347387L49.8828 0.0288266L50.0602 0.0234659L50.2475 0.0186564L50.4468 0.0143979L50.6605 0.0106901L50.8923 0.00753286L51.1475 0.00492595L51.4352 0.00286931L51.7722 0.00136282L52.1979 0.000406397L52.8913 0L59.8603 0.000143607L60.3655 0.000837227L60.7372 0.00208089L61.0454 0.00387466L61.3146 0.00621863L61.5571 0.00911289L61.7785 0.0125577L61.9847 0.016553L62.1774 0.0210993L62.3591 0.0261965L62.5317 0.0318451L62.6967 0.0380453L62.854 0.0447974L63.0054 0.0521019L63.1514 0.0599588L63.2925 0.0683689L63.4287 0.0773327L63.5605 0.08685L63.6886 0.0969221L63.8134 0.107549L63.935 0.118732L64.0527 0.13047L64.1683 0.142766L64.2806 0.155619L64.3908 0.169029L64.4982 0.182999L64.6035 0.197529L64.7066 0.212618L64.8075 0.22827L64.9068 0.244483L65.004 0.261259L65.0995 0.2786L65.1928 0.296506L65.2845 0.314977L65.3751 0.334016L65.4636 0.353622L65.5509 0.373799L65.6367 0.394546L65.7208 0.415865L65.8038 0.437758L65.8857 0.460225L65.966 0.483268L66.0447 0.50689L66.1229 0.53109L66.1994 0.555869L66.2748 0.581235L66.3497 0.607184L66.4229 0.633716L66.4951 0.660836L66.5662 0.688545L66.6362 0.716848L66.7057 0.745745L66.7735 0.775236L66.8408 0.805326L66.907 0.836017L66.9721 0.867312L67.0367 0.899206L67.1002 0.931711L67.1626 0.964827L67.2239 0.998558L67.2847 1.03291L67.3449 1.06787L67.404 1.10345L67.4621 1.13967L67.5196 1.17651L67.576 1.21398L67.6319 1.25208L67.6873 1.29082L67.7416 1.33021L67.7947 1.37025L67.8474 1.41093L67.8995 1.45227L67.951 1.49427L68.0015 1.53693L68.0508 1.58027L68.1002 1.62427L68.1485 1.66895L68.1957 1.71432L68.243 1.76037L68.2891 1.80713L68.3347 1.85458L68.3792 1.90274L68.4236 1.95161L68.4671 2.00121L68.5099 2.05153L68.5517 2.10258L68.5935 2.15438L68.6342 2.20693L68.6743 2.26024L68.714 2.31431L68.7525 2.36916L68.791 2.42479L68.8285 2.48122L68.8653 2.53845L68.9017 2.5965L68.9375 2.65538L68.9723 2.71509L69.007 2.77566L69.0406 2.83709L69.0737 2.89939L69.1063 2.96259L69.1383 3.02669L69.1692 3.09172L69.2002 3.15768L69.2305 3.2246L69.2598 3.29249L69.2886 3.36137L69.3174 3.43127L69.345 3.5022L69.3722 3.57418L69.3982 3.64725L69.4243 3.72142L69.4498 3.79672L69.4747 3.87318L69.4986 3.95083L69.5225 4.0297L69.5453 4.10982L69.5675 4.19124L69.5898 4.27399L69.6109 4.35811L69.6316 4.44364L69.6516 4.53064L69.6712 4.61915L69.6902 4.70923L69.7086 4.80094L69.7265 4.89434L69.7439 4.9895L69.7602 5.0865L69.7764 5.18542L69.7922 5.28634L69.8068 5.38937L69.8215 5.49461L69.8356 5.60219L69.8486 5.71224L69.8616 5.82489L69.8736 5.94028L69.885 6.05869L69.8964 6.18019L69.9067 6.30514L69.9164 6.43373L69.9262 6.56629L69.9349 6.70312L69.943 6.8447L69.9506 6.99155L69.9577 7.14411L69.9642 7.30323L69.9702 7.46966L69.9761 7.64451L69.981 7.8292L69.9854 8.02549L69.9892 8.23587L69.9924 8.46379L69.9946 8.71442L69.9967 8.99635L69.9984 9.32514L69.9995 9.73693L70 10.3792V11ZM53.7209 17.05H58.062C62.1747 17.05 64.5736 14.4571 64.5736 10.9654C64.5736 7.43914 62.2072 4.95 58.1271 4.95H53.7209V17.05ZM51.5504 17.05H48.2946V4.95H51.5504V17.05ZM11.9133 11C11.9133 14.3372 9.52727 17.325 5.93974 17.325C2.35221 17.325 0 14.3722 0 11C0 7.66277 2.38605 4.675 5.97361 4.675C9.56113 4.675 11.9133 7.62784 11.9133 11ZM0.913804 11C0.913804 14.0227 3.04602 16.5038 5.97361 16.5038C8.90112 16.5038 10.9995 14.0577 10.9995 11C10.9995 7.97725 8.86732 5.4962 5.93974 5.4962C3.01218 5.4962 0.913804 7.94233 0.913804 11ZM16.0331 17.05H15.1938V4.95H16.0163L24.1242 15.477V4.95H24.9635V17.05H24.3088L16.0331 6.29827V17.05ZM36.8992 17.05H28.4557V4.95H36.8153V5.77973H29.3286V10.5333H36.0599V11.363H29.3286V16.2203H36.8992V17.05ZM58.7121 14.9295C59.0322 14.9201 59.3969 14.8778 59.7681 14.7826C59.8126 14.7713 59.8576 14.7593 59.9043 14.7463C60.1908 14.6657 60.5012 14.5472 60.8202 14.3487C60.8984 14.3015 60.9743 14.2508 61.0492 14.1965L61.0465 14.1953C61.2739 14.0278 61.504 13.8158 61.7324 13.5449C61.8257 13.4337 61.9869 13.1988 62.0781 13.0165C61.867 12.7896 61.5457 12.6031 61.2446 12.439L61.2126 12.4215C61.0731 12.3452 60.8202 12.2072 60.5847 12.1138C60.5598 12.1039 60.5332 12.0941 60.5066 12.0841C60.3031 12.008 60.0649 11.9191 60.041 11.6739C60.0226 11.4848 60.117 11.3666 60.2298 11.2258C60.257 11.192 60.2852 11.1569 60.3129 11.1191C60.6417 10.6741 60.951 10.0669 60.8951 9.24495C60.8403 8.4381 60.3308 7.81154 59.4783 7.71485C59.3795 7.70369 59.2835 7.69884 59.1902 7.70022C59.0968 7.69884 59.0002 7.70369 58.9015 7.71485C58.049 7.81154 57.5395 8.4381 57.4847 9.24495C57.4288 10.0669 57.7381 10.6741 58.0669 11.1191C58.0951 11.1569 58.1228 11.192 58.1499 11.2258C58.2628 11.3666 58.3572 11.4848 58.3388 11.6739C58.3149 11.9191 58.0767 12.008 57.8732 12.0841C57.8466 12.0941 57.8205 12.1039 57.7956 12.1138C57.5595 12.2072 57.3072 12.3452 57.1672 12.4215L57.1352 12.439C56.6881 12.6825 56.1975 12.9754 56.0874 13.3761C55.9523 13.8663 55.8795 14.4816 55.8931 14.9295H56.6566C56.8693 14.9295 57.088 14.9317 57.311 14.9339C57.769 14.9385 58.2438 14.9432 58.7121 14.9295Z" fill="#171142"/>
</svg>
