<svg width="171" height="171" viewBox="0 0 171 171" fill="none" xmlns="http://www.w3.org/2000/svg">
<g id="g10">
<path id="path14" d="M70.0792 57.9472V46.7443C70.0792 38.2756 77.0005 33.7104 85.4988 33.7104C93.9676 33.7104 100.92 38.2756 100.92 46.7443V57.9472H110.602V46.7443C110.602 32.9338 99.3401 23.997 85.4988 23.997C71.6268 23.997 60.3977 32.9338 60.3977 46.7443V57.9472H70.0792Z" fill="#E9F2E1"/>
<path id="path16" d="M120.546 89.7407H50.4543V67.9476C50.4543 61.2461 55.8867 55.8144 62.5874 55.8144H108.412C115.113 55.8144 120.546 61.2461 120.546 67.9476V89.7407Z" fill="#4C4988"/>
<path id="path18" d="M90.8987 78.5104C90.8987 81.4928 88.4823 83.9092 85.4999 83.9092C82.5176 83.9092 80.1012 81.4928 80.1012 78.5104C80.1012 75.5281 82.5176 73.1117 85.4999 73.1117C88.4823 73.1117 90.8987 75.5281 90.8987 78.5104Z" fill="#24224E"/>
<path id="path20" d="M88.4481 80.7492H82.5518L81.446 87.5031H89.5538L88.4481 80.7492Z" fill="#24224E"/>
<g id="path22">
<path d="M41.0062 106.955L43.3762 102.85L47.9282 105.478V100.22H52.6682V105.478L57.2218 102.85L59.5915 106.955L55.0396 109.583L59.5915 112.211L57.2218 116.318L52.6682 113.688V118.943H47.9282V113.688L43.3762 116.318L41.0062 112.211L45.5582 109.583L41.0062 106.955ZM64.4732 106.955L66.8429 102.85L71.3967 105.478V100.22H76.1362V105.478L80.6888 102.85L83.0574 106.955L78.507 109.583L83.0574 112.211L80.6888 116.318L76.1362 113.688V118.943H71.3967V113.688L66.8429 116.318L64.4732 112.211L69.0259 109.583L64.4732 106.955ZM87.9414 106.955L90.3111 102.85L94.8638 105.478V100.22H99.6032V105.478L104.157 102.85L106.527 106.955L101.975 109.583L106.527 112.211L104.157 116.318L99.6032 113.688V118.943H94.8638V113.688L90.3111 116.318L87.9414 112.211L92.4929 109.583L87.9414 106.955ZM111.408 106.955L113.778 102.85L118.332 105.478V100.22H123.071V105.478L127.624 102.85L129.994 106.955L125.442 109.583L129.994 112.211L127.624 116.318L123.071 113.688V118.943H118.332V113.688L113.778 116.318L111.408 112.211L115.96 109.583L111.408 106.955ZM47.1591 131.999H61.4055V148.779L83.5163 131.999H123.954C136.162 131.999 146.098 122.043 146.098 109.796L146.013 109.311C146.013 97.0991 136.078 87.166 123.856 87.166L47.0459 87.2502C34.8375 87.2502 24.9026 97.1845 24.9026 109.394L24.9844 109.938C24.9844 122.151 34.9254 131.999 47.1591 131.999Z" fill="#FDC007"/>
<path d="M41.0062 106.955L43.3762 102.85L47.9282 105.478V100.22H52.6682V105.478L57.2218 102.85L59.5915 106.955L55.0396 109.583L59.5915 112.211L57.2218 116.318L52.6682 113.688V118.943H47.9282V113.688L43.3762 116.318L41.0062 112.211L45.5582 109.583L41.0062 106.955ZM64.4732 106.955L66.8429 102.85L71.3967 105.478V100.22H76.1362V105.478L80.6888 102.85L83.0574 106.955L78.507 109.583L83.0574 112.211L80.6888 116.318L76.1362 113.688V118.943H71.3967V113.688L66.8429 116.318L64.4732 112.211L69.0259 109.583L64.4732 106.955ZM87.9414 106.955L90.3111 102.85L94.8638 105.478V100.22H99.6032V105.478L104.157 102.85L106.527 106.955L101.975 109.583L106.527 112.211L104.157 116.318L99.6032 113.688V118.943H94.8638V113.688L90.3111 116.318L87.9414 112.211L92.4929 109.583L87.9414 106.955ZM111.408 106.955L113.778 102.85L118.332 105.478V100.22H123.071V105.478L127.624 102.85L129.994 106.955L125.442 109.583L129.994 112.211L127.624 116.318L123.071 113.688V118.943H118.332V113.688L113.778 116.318L111.408 112.211L115.96 109.583L111.408 106.955ZM47.1591 131.999H61.4055V148.779L83.5163 131.999H123.954C136.162 131.999 146.098 122.043 146.098 109.796L146.013 109.311C146.013 97.0991 136.078 87.166 123.856 87.166L47.0459 87.2502C34.8375 87.2502 24.9026 97.1845 24.9026 109.394L24.9844 109.938C24.9844 122.151 34.9254 131.999 47.1591 131.999Z" fill="url(#paint0_linear_558_860)"/>
</g>
<path id="path24" d="M85.3212 170.905C78.8054 170.905 72.2975 170.159 65.9775 168.688C59.5095 167.184 53.215 164.912 47.2685 161.939C46.2203 161.408 45.1159 160.823 43.9835 160.195C39.2116 157.52 34.6379 154.339 30.3684 150.724L30.7505 158.196L24.8533 158.497L23.962 141.075L41.3851 140.183L41.6869 146.081L34.4607 146.45C38.3627 149.725 42.5262 152.609 46.856 155.037C47.8894 155.608 48.9224 156.156 49.9235 156.664C60.8339 162.12 73.0753 165.004 85.3224 165.004C85.3235 165.004 85.3246 165.004 85.3258 165.004C107.913 165.003 129.493 155.447 144.534 138.786C168.404 112.341 171.744 72.8828 152.655 42.8328L152.341 42.3397L157.326 39.1718L157.64 39.666C178.145 71.9479 174.558 114.335 148.917 142.743C141.271 151.213 132.143 157.962 121.785 162.805C111.67 167.534 100.88 170.222 89.7122 170.792C88.2557 170.867 86.7776 170.905 85.3212 170.905Z" fill="#4C4988"/>
<path id="path26" d="M13.3607 131.331C-7.14549 99.0475 -3.55836 56.6604 22.0839 28.2536C38.2385 10.3584 61.41 0.0949707 85.656 0.0949707C92.1729 0.0949707 98.6831 0.84198 105.006 2.31549C111.477 3.82318 117.773 6.09723 123.719 9.07501C124.718 9.55784 125.808 10.1306 127.044 10.8218C131.807 13.491 136.372 16.6658 140.632 20.2722L140.25 12.8271L146.148 12.5254L147.039 29.9469L129.617 30.8385L129.315 24.941L136.568 24.5698C132.664 21.2925 128.496 18.4047 124.161 15.9746C123.03 15.3426 122.033 14.8188 121.112 14.3724C110.171 8.89397 97.9076 5.9993 85.6412 5.9993C63.0715 5.9993 41.5027 15.5533 26.4666 32.2107C2.59661 58.6544 -0.742956 98.1126 18.3455 128.165L18.6588 128.658L13.6739 131.824L13.3607 131.331Z" fill="#4C4988"/>
</g>
<defs>
<linearGradient id="paint0_linear_558_860" x1="24.9058" y1="117.973" x2="146.098" y2="117.973" gradientUnits="userSpaceOnUse">
<stop stop-color="#D8AA63"/>
<stop offset="0.2" stop-color="#F4D082"/>
<stop offset="0.38" stop-color="#F7D17F"/>
<stop offset="0.61" stop-color="#E8BF73"/>
<stop offset="0.83" stop-color="#F4D082"/>
<stop offset="1" stop-color="#E9CF8E"/>
</linearGradient>
</defs>
</svg>
