<svg width="16" height="16" viewBox="0 0 16 16" fill="none" xmlns="http://www.w3.org/2000/svg">
<g id="Iconly/Bold/Upload">
<g id="Upload">
<path id="Upload_2" fill-rule="evenodd" clip-rule="evenodd" d="M10.3561 12.5091C10.5048 12.3083 10.4877 12.0218 10.2998 11.84C10.0998 11.64 9.77316 11.64 9.57316 11.84L8.51316 12.9066L8.51316 10.1466L7.48649 10.1466L7.48649 12.9066L6.42649 11.84L6.369 11.7904C6.16815 11.6416 5.88164 11.6581 5.69983 11.84C5.59983 11.94 5.54649 12.0733 5.54649 12.2066C5.54649 12.3333 5.59983 12.4666 5.69983 12.5666L7.63983 14.5133L7.70031 14.5676C7.78649 14.6325 7.89316 14.6666 7.99983 14.6666C8.13983 14.6666 8.26649 14.6133 8.36649 14.5133L10.3065 12.5666L10.3561 12.5091ZM11.8459 10.1432C13.4147 10.0691 14.6666 8.7494 14.6666 7.14165L14.6666 3.83157L14.6634 3.6899C14.5906 2.09334 13.2931 0.813159 11.7 0.813159L4.29329 0.813158L4.15407 0.81644C2.58523 0.890545 1.33329 2.21045 1.33329 3.82479L1.33329 7.12808L1.33653 7.2703C1.40973 8.87272 2.71329 10.1465 4.29996 10.1465L7.48663 10.1465L7.48663 6.07673L7.49138 6.00518C7.52584 5.74822 7.74329 5.55444 7.99996 5.55444C8.28663 5.55444 8.51329 5.78506 8.51329 6.07673L8.51329 10.1465L11.7066 10.1465L11.8459 10.1432Z" fill="#A2A0B3"/>
</g>
</g>
</svg>
